<?xml version="1.0" standalone="no"?>
<!DOCTYPE svg PUBLIC "-//W3C//DTD SVG 1.1//EN" "http://www.w3.org/Graphics/SVG/1.1/DTD/svg11.dtd" >
<!--
2013-9-30: Created.
-->
<svg>
<metadata>
Created by iconfont
</metadata>
<defs>

<font id="iconfont" horiz-adv-x="1024" >
  <font-face
    font-family="iconfont"
    font-weight="500"
    font-stretch="normal"
    units-per-em="1024"
    ascent="896"
    descent="-128"
  />
    <missing-glyph />
    
    <glyph glyph-name="reading1" unicode="&#58916;" d="M509.176698 461.405951l5.626137 0 0-0.836041-5.626137 0 0 0.836041ZM446.335465 135.701914l3.232624-1.155313c-7.946996 6.294356-28.261671 20.971637-54.718229 29.693276-31.472805 10.379395-78.362742 14.19735-123.004475-26.523073-0.50756-0.465604-1.146103-0.621147-1.845021-0.445138-10.67513 2.619664-56.888661 116.818589-98.05627 223.825718-2.235924-1.509377-4.409426-3.219321-6.680143-5.016247-3.997034-3.157923-8.332782-6.561439-13.661138-9.258874 51.453882-128.60503 103.078657-254.43997 110.639866-261.747399C309.261553 184.754097 372.794541 162.02441899999997 446.335465 135.701914zM754.001683 138.729877c-0.704035-0.173962-1.339508-0.01842-1.846044 0.447185-44.659129 40.73475-91.571578 36.916794-123.057687 26.545586-26.324552-8.674567-46.547129-23.228027-54.56064-29.55513l0.297782 0.10847c68.521606 25.15082 139.369188 51.15917 186.921203-49.616024 7.346315 7.098675 56.263421 126.028345 106.21509 250.703879-0.559748 0.258896-1.101077 0.490164-1.596358 0.62217-8.42795 2.270716-14.487969 6.441713-19.605523 10.775414C807.013037 245.977483 764.220419 141.23902399999997 754.001683 138.729877zM505.773182 459.733868l-0.25071 0.288572c-18.821671 21.775956-189.597149 211.449853-386.812813 166.57583-1.385557-2.146896 8.795317-23.408129 19.566638-42.86118l34.187637 0.966001-17.685801 31.099299 1.189082 0.193405c114.810862 18.554588 306.7258-122.57878 344.028381-151.060461l-0.915859-1.301645c1.038656-0.594541 2.056845-1.188058 3.047406-1.777483l1.648546-0.980327-1.838881-0.541329c-0.613984-0.181125-1.26583-1.077541-1.26583-2.38328l9.701966-318.554196c0-1.458211 0.803295-2.52552 1.521656-2.52552l1.749854 0c0.718361 0 1.520633 1.067308 1.520633 2.498914l9.701966 318.247204c0 1.214664-0.638543 2.115174-1.518586 2.115174l-3.90596 0 2.537799 1.549286c43.00342 26.257014 130.673132 56.410777 223.347834 76.822666 74.399477 16.388249 159.627581 27.481911 175.689395 9.463536l0.334621-0.372483-0.170892-0.469698c-1.886977-5.161556-17.087167-46.732347-37.675064-101.517091 8.005324-2.01182 16.731056-4.595668 24.418133-7.53051 21.381983 53.973262 40.755216 103.308901 54.434773 138.357138-211.661677 21.439288-386.599965-79.323627-435.241802-110.763686l-0.961908 1.367137c52.290947 39.937594 231.457536 168.859849 341.877391 151.012366l1.190105-0.193405-17.682731-31.058366 34.18559-0.890276c10.767228 19.377326 20.949124 40.561811 19.481703 42.763966-196.498326 44.667316-367.877555-146.325623-386.770857-168.252005l-0.25071-0.289596-1.534959 0 0 0.836041-1.846044 0-5.626137 0-1.834788 0 0-0.836041L505.773182 459.731822zM102.821807 545.431669l-0.171915 0.469698 0.332575 0.373507c15.992229 17.933441 101.289917 7.055696 175.787632-9.103332 89.525989-19.419282 174.540222-47.742351 219.070414-72.835865-50.372248 32.340569-224.711901 131.516336-436.199617 110.095467 12.758582-32.686447 30.472012-77.80197 50.145074-127.515209 8.621355 2.229784 17.836227 3.975545 25.64303 5.128811C118.411877 502.773104 104.612593 540.527986 102.821807 545.431669zM85.929068 426.793642c-0.725524-4.28663 1.691525-7.91425 3.195785-9.695826 3.653203-4.324492 8.608052-6.0416 10.220782-5.025457 13.789051 8.65717 35.793204 16.231683 65.396429 22.50762 3.561106 0.7552 13.518898 3.954055 12.609179 8.602935-1.200338 6.086625-10.462283 7.365758-18.021445 7.365758-2.423189 0-4.527107-0.134053-5.78475-0.212848-0.487094-0.030699-0.864694-0.054235-1.109264-0.062422-11.18576-0.385786-41.324174-5.338588-56.990992-12.273535C91.555206 436.275597 86.658685 431.115064 85.929068 426.793642zM93.426833 395.710716c1.841951-6.478552 5.236258-9.763364 10.089799-9.763364 3.38612 0 6.29845 1.607614 7.109931 2.100848l0.747014 0.456395c6.746658 4.13211 27.28032 16.706497 59.019185 20.379143 14.108323 1.632173 30.617321 8.665357 29.956266 14.95255-0.220011 2.122337-0.886183 8.574283-14.508435 8.574283-7.170307 0-15.536858-1.696642-22.773679-3.355421-17.256012-3.967358-46.13576-12.81998-61.623499-19.676132C97.875145 407.801079 91.648326 401.99177 93.426833 395.710716zM179.304735 405.070898c-0.35918-0.045025-0.668219-0.082888-0.915859-0.105401-14.389732-1.343601-40.879036-8.124028-65.025992-19.834744-3.749394-1.822508-7.965415-6.526647-8.234545-10.949376-0.302899-5.03569 1.62808-8.212032 3.302209-9.989515 2.527566-2.687202 5.692652-3.64297 7.81192-3.64297 0.683569 0 1.293459 0.094144 1.813299 0.277316 10.290367 3.632737 17.633612 7.795547 24.735357 11.822257 6.529717 3.701299 13.282514 7.529487 22.075785 10.740622 0.314155 0.11461 1.110287 0.331551 2.25639 0.638543 22.989597 6.142907 25.880437 10.862395 25.558096 13.129019-0.796132 5.594415-3.871167 8.199753-9.673313 8.199753C181.569312 405.3564 180.260503 405.191648 179.304735 405.070898zM163.268504 376.93611699999997l-0.450255-0.160659c-10.426467-3.670599-16.751522-7.706519-29.352515-15.745612-2.180666-1.391696-4.545526-2.90005-7.147794-4.545526-1.807159-1.13894-2.859118-2.384303-3.12927-3.703345-0.260943-1.274016 0.182149-2.752694 1.314948-4.39817 2.927679-4.240581 5.191232-4.732791 6.638187-4.732791 0 0 0 0 0.001023 0 1.506307 0 3.048429 0.624217 4.539386 1.224898 1.094938 0.443092 2.226714 0.900509 3.367701 1.12052 10.680247 2.066055 17.523095 7.476275 24.14184 12.709463 3.00545 2.37407 5.843078 4.619204 8.963139 6.502088 0.189312 0.11461 0.434905 0.25378 0.726547 0.420579 2.174526 1.24127 7.951089 4.536316 8.728802 8.588609 0.311085 1.622964-0.204661 3.248997-1.576915 4.969175-0.475837 0.595564-1.655709 0.925069-3.323699 0.925069C172.09145 380.11246000000006 165.449169 377.72303999999997 163.268504 376.93611699999997zM860.3365 446.323441c-2.023076 0.277316-5.78168 0.792039-9.891278 0.792039-5.78782 0-12.982686-1.077541-14.385639-6.204305-1.24127-4.564969 8.458649-8.477069 11.95631-9.487072 29.071106-8.401344 50.469462-17.542538 63.60155-27.170826 0.350994-0.257873 0.89437-0.394996 1.567705-0.394996 2.366907 0 6.361895 1.760087 9.416464 5.122671 2.521426 2.772136 3.748371 5.961782 3.458775 8.980535-0.416486 4.366448-4.926196 9.867742-8.680706 11.869329-15.128559 8.05035-44.825928 15.163351-55.955406 16.35448C861.181751 446.209854 860.812337 446.258972 860.3365 446.323441zM909.330354 401.715477c-14.945387 7.952112-43.11189 18.866696-60.040445 24.073278-8.216125 2.520403-17.637706 5.097088-25.232684 5.097088-9.845229 0-11.753695-4.339842-12.33391-7.604188-1.108241-6.226818 14.849196-14.435781 28.800953-17.081027 31.366382-5.948479 50.941206-19.967774 57.372685-24.574698l0.728594-0.520863c0.871857-0.6191 3.997034-2.638083 7.67889-2.638083 4.470825 0 7.847735 3.041266 10.032494 9.038864C918.566716 393.638521 912.775826 399.883759 909.330354 401.715477zM895.687636 378.391259c-23.2444 13.429871-49.174979 22.104437-63.429635 24.479531-0.240477 0.039909-0.543376 0.100284-0.892323 0.170892-1.190105 0.237407-2.989077 0.599657-4.901637 0.599657-4.967128 0-7.915273-2.461051-9.016351-7.523347-0.48607-2.238994 2.057869-7.158027 24.551162-14.94334 1.116427-0.385786 1.893116-0.660032 2.194992-0.794086 8.540514-3.839445 14.997576-8.146541 21.243837-12.310374 6.792707-4.529153 13.815657-9.210779 23.817452-13.580297 0.639566-0.277316 1.450025-0.424672 2.345418-0.424672 4.716418 0 11.404748 3.974521 11.509125 12.809747C903.163911 371.30486299999995 899.299907 376.30166699999995 895.687636 378.391259zM845.759503 373.62469799999997l-0.438998 0.194428c-6.228865 2.768043-10.930957 4.170996-13.977339 4.170996-0.87595 0-2.033309-0.12382-2.576685-0.713244-1.494027-1.617847-2.127454-3.199878-1.935072-4.839215 0.481977-4.095271 6.004761-7.79964 8.085142-9.193383 0.277316-0.187265 0.514723-0.345877 0.693802-0.472767 2.978844-2.104941 5.646604-4.547573 8.470929-7.136537 6.224772-5.696746 12.658298-11.587919 23.160489-14.416338 1.122567-0.301875 2.219551-0.841158 3.28072-1.362021 1.565658-0.769526 3.186576-1.563612 4.828982-1.563612 2.125407 0 4.27742 1.390673 6.575766 4.254907 1.24741 1.559519 1.794879 3.003404 1.627057 4.291746-0.176009 1.333368-1.1328 2.65241-2.854001 3.920286-2.466168 1.819438-4.706185 3.489474-6.77224 5.028527C861.927741 364.72295799999995 855.904561 369.20810900000004 845.759503 373.62469799999997z"  horiz-adv-x="1024" />

    
    <glyph glyph-name="sleep" unicode="&#59213;" d="M810.666667 405.333333l-23.466667-61.866667L725.333333 343.46666700000003l51.2-38.4L753.066667 234.66666699999996l57.6 42.666667 57.6-42.666667-23.466667 70.4 51.2 38.4-61.866667 0L810.666667 405.333333zM539.733333 448l57.6 42.666667 57.6-42.666667-23.466667 70.4 51.2 38.4-61.866667 0L597.333333 618.666667l-23.466667-61.866667L512 556.8l51.2-38.4L539.733333 448zM981.333333 768l-85.333333 0-32 85.333333L832 768l-85.333333 0 70.4-53.333333L785.066667 618.666667l81.066667 59.733333 81.066667-59.733333-32 96L981.333333 768zM362.666667 556.8c0 113.066667 40.533333 215.466667 106.666667 296.533333C230.4 832 42.666667 629.333333 42.666667 384c0-260.266667 209.066667-469.333333 469.333333-469.333333 147.2 0 298.666667 68.266667 384 172.8-14.933333-2.133333-49.066667-2.133333-64-2.133333C571.733333 85.33333300000004 362.666667 296.53333299999997 362.666667 556.8zM512-42.66666699999996C277.333333-42.66666699999996 85.333333 149.33333300000004 85.333333 384c0 187.733333 119.466667 349.866667 292.266667 405.333333-36.266667-72.533333-57.6-153.6-57.6-234.666667 0-268.8 204.8-488.533333 467.2-512C710.4-10.666666999999961 610.133333-42.66666699999996 512-42.66666699999996z"  horiz-adv-x="1024" />

    
    <glyph glyph-name="zengjia" unicode="&#59114;" d="M939.939489 436.927443 562.339502 436.927443 562.339502 812.480818 462.055494 812.480818 462.055494 436.927443 84.455507 436.927443 84.455507 336.643436 462.055494 336.643436 462.055494-43.003164 562.339502-43.003164 562.339502 336.643436 939.939489 336.643436Z"  horiz-adv-x="1024" />

    
    <glyph glyph-name="meat" unicode="&#58886;" d="M0 590.151295l0-47.877505 0.911584 0c9.280122-235.043808 153.803283-435.175223 358.170505-524.507267l0-2.151726 23.937947 0 0-47.877505c0-52.878334 42.876675-95.753399 95.755009-95.753399L718.16418-128.01610600000004c52.878334 0 95.753399 42.875065 95.753399 95.753399l0 47.877505 19.383246 0c206.820126 88.323825 353.375829 289.840334 362.725206 526.657382l0.911584 0 0 47.877505L0 590.149684 0 590.151295 0 590.151295zM931.558664 614.087631l205.183783 205.183783c4.673883 4.675494 4.673883 12.250019 0 16.923901l-16.930344 16.923901c-4.673883 4.680325-12.248408 4.680325-16.923901 0L863.851784 614.087631 931.558664 614.087631 931.558664 614.087631zM894.50421 866.0794989999999c3.296843 5.723977 1.333554 13.04081-4.396864 16.337653l-20.710359 11.966558c-5.725587 3.321002-13.048863 1.359324-16.363422-4.372706l-159.295337-275.923372 55.287751 0L894.50421 866.0794989999999 894.50421 866.0794989999999zM894.50421 866.0794989999999"  horiz-adv-x="1197" />

    
    <glyph glyph-name="meal" unicode="&#58887;" d="M512 110.93333299999995c-145.066667 0-264.533333 119.466667-264.533333 264.533333l0 8.533333c0 8.533333 8.533333 17.066667 17.066667 17.066667l494.933333 0c8.533333 0 17.066667-6.826667 17.066667-17.066667l0-8.533333C776.533333 230.39999999999998 657.066667 110.93333299999995 512 110.93333299999995zM281.6 366.93333299999995c5.12-122.88 105.813333-221.866667 230.4-221.866667 124.586667 0 225.28 98.986667 230.4 221.866667L281.6 366.93333299999995zM617.813333 259.41333299999997c-68.266667 0-168.96 1.706667-319.146667 5.12-10.24 0-17.066667 8.533333-17.066667 17.066667 0 10.24 8.533333 17.066667 17.066667 17.066667 151.893333-3.413333 397.653333-8.533333 433.493333-3.413333 6.826667 5.12 15.36 3.413333 20.48-1.706667 5.12-5.12 6.826667-13.653333 3.413333-18.773333C754.346667 266.24 750.933333 259.41333299999997 617.813333 259.41333299999997zM520.533333 418.133333c-3.413333 0-5.12 0-8.533333 1.706667-8.533333 5.12-10.24 15.36-6.826667 23.893333 114.346667 201.386667 119.466667 206.506667 122.88 208.213333 6.826667 6.826667 17.066667 6.826667 23.893333 0 6.826667-6.826667 6.826667-17.066667 1.706667-23.893333-8.533333-10.24-76.8-129.706667-117.76-203.093333C532.48 421.546667 525.653333 418.133333 520.533333 418.133333zM571.733333 418.133333c-5.12 0-10.24 1.706667-11.946667 5.12-6.826667 6.826667-5.12 17.066667 1.706667 23.893333l153.6 136.533333c6.826667 6.826667 17.066667 5.12 23.893333-1.706667 6.826667-6.826667 5.12-17.066667-1.706667-23.893333l-153.6-136.533333C580.266667 419.84 575.146667 418.133333 571.733333 418.133333z"  horiz-adv-x="1024" />

    
    <glyph glyph-name="list-2-copy" unicode="&#58903;" d="M918.764 734.719h-107.71v20.906c0 12.508-10.304 22.812-23.688 22.812h-125.51c-6.963 27.436-21.421 51.629-40.891 70.91-27.842 27.174-66.792 44.278-109.128 44.278-42.589 0-80.717-17.104-109.101-44.278-19.75-19.281-34.218-43.474-40.891-70.91h-125.519c-13.357 0-23.399-10.304-23.399-22.812v-20.906h-107.999c-21.71 0-38.941-17.655-38.941-38.309v-783.718c0-21.213 17.24-38.309 38.941-38.309h813.836c21.71 0 39.257 17.095 39.257 38.309l0 783.709c0 20.662-17.547 38.318-39.257 38.318v0zM436.132 816.755v0c19.217 19.29 46.21 30.714 75.705 30.714 29.513 0 56.515-11.433 75.732-30.714 11.126-10.602 20.039-23.643 25.584-38.309l-202.073-0c5.292 14.666 13.953 27.697 25.051 38.309v0zM259.698 732.561v0h504.288v-72.562l-504.288-0v72.562zM879.797-49.035v0h-735.331v706.875h68.462v-20.662c0-13.040 10.042-22.794 23.399-22.794h551.049c13.384 0 23.688 9.753 23.688 22.794v20.662h68.742l-0-706.875h-0.009zM281.95 330.755v0c-21.701 0-39.248-16.851-39.248-38.561 0-20.915 17.547-38.065 39.248-38.065 21.737 0 39.257 17.149 39.257 38.065-0.009 21.719-17.529 38.561-39.257 38.561v0zM281.95 168.86v0c-21.701 0-39.248-16.851-39.248-38.038s17.547-38.038 39.248-38.038c21.737 0 39.257 16.851 39.257 38.038s-17.529 38.038-39.257 38.038v0zM740.072 477.46v0h-340.677c-13.357 0-23.661-10.611-23.661-23.092 0-12.76 10.304-23.092 23.661-23.092h340.677c12.824 0 23.381 10.331 23.381 23.092 0 12.49-10.557 23.092-23.381 23.092v0zM281.95 492.676v0c-21.701 0-39.248-17.402-39.248-38.309 0-21.186 17.547-38.868 39.248-38.868 21.737 0 39.257 17.682 39.257 38.868-0.009 20.915-17.529 38.309-39.257 38.309v0zM740.072 153.914v0h-340.677c-13.357 0-23.661-10.602-23.661-23.092 0-12.49 10.304-22.812 23.661-22.812l340.677-0c12.824 0 23.381 10.331 23.381 22.812 0 12.49-10.557 23.092-23.381 23.092v0zM740.072 315.556v0h-340.677c-13.357 0-23.661-10.349-23.661-23.363 0-12.517 10.304-22.568 23.661-22.568l340.677-0c12.824 0 23.381 10.051 23.381 22.568 0 13.013-10.557 23.363-23.381 23.363v0z"  horiz-adv-x="1024" />

    
    <glyph glyph-name="morning" unicode="&#59014;" d="M927.24736 773.16096c54.50752-54.53824 54.50752-142.8992 0-197.40672l-197.40672 197.40672c54.5024 54.50752 142.8992 54.50752 197.40672 0zM883.2256 368.65536c0-202.17344-163.90656-366.04416-366.04416-366.04416-202.17344 0-366.04416 163.87072-366.04416 366.04416 0 202.20416 163.87072 366.04416 366.04416 366.04416 202.1376 0 366.04416-163.84 366.04416-366.04416z m-93.51168 0c0 150.51264-122.02496 272.56832-272.5376 272.56832-150.54336 0-272.56832-122.05568-272.56832-272.56832s122.02496-272.5376 272.56832-272.5376c150.51264 0 272.5376 122.02496 272.5376 272.5376zM559.47264 369.3568a41.53856 41.53856 0 0 1-41.55904 41.55904c-0.256 0-0.48128 0-0.73728-0.03072-22.56896-0.35328-40.82688-18.79552-40.82688-41.52832 0-22.95296 18.6368-41.55904 41.55904-41.55904a41.51296 41.51296 0 0 1 41.52832 40.8576c0.03584 0.22528 0.03584 0.48128 0.03584 0.70144z m-42.2912 271.86688c150.51264 0 272.5376-122.05568 272.5376-272.56832s-122.02496-272.5376-272.5376-272.5376c-150.54336 0-272.56832 122.02496-272.56832 272.5376s122.02496 272.56832 272.56832 272.56832zM296.78592 773.16096L99.37408 575.74912c-54.53824 54.50752-54.53824 142.86848 0 197.40672 54.50752 54.51264 142.90432 54.51264 197.41184 0.00512zM517.18144-19.768320000000017c-214.17472 0-388.42368 174.24896-388.42368 388.42368s174.24896 388.42368 388.42368 388.42368 388.42368-174.24896 388.42368-388.42368-174.24896-388.42368-388.42368-388.42368z m0 732.08832C327.68 712.3199999999999 173.5168 558.1516799999999 173.5168 368.65536c0-189.49632 154.16832-343.66464 343.66464-343.66464 189.49632 0 343.66464 154.16832 343.66464 343.66464 0 189.50144-154.16832 343.66464-343.66464 343.66464zM517.18144 73.73824000000002c-162.6368 0-294.94784 132.29568-294.94784 294.912 0 162.63168 132.31104 294.94784 294.94784 294.94784 162.61632 0 294.912-132.31104 294.912-294.94784 0-162.6112-132.29568-294.912-294.912-294.912z m0 545.10592c-137.9584 0-250.1888-112.23552-250.1888-250.1888 0-137.93792 112.23552-250.15808 250.1888-250.15808 137.93792 0 250.15808 112.22016 250.15808 250.15808-0.00512 137.95328-112.22016 250.1888-250.15808 250.1888zM517.18144 346.27584a22.37952 22.37952 0 0 0-22.37952 22.37952v196.864a22.37952 22.37952 0 0 0 44.75904 0.04096V368.65536a22.38464 22.38464 0 0 0-22.37952-22.37952zM649.8816 346.27584h-132.70528a22.37952 22.37952 0 0 0 0 44.75904h132.70528a22.37952 22.37952 0 0 0 0-44.75904zM517.9136 305.41823999999997c-35.25632 0-63.93856 28.68224-63.93856 63.93856 0 34.43712 27.776 62.93504 62.07488 63.88736 0.60416 0.03584 1.20832 0.0512 1.85856 0.0512 35.25632 0 63.93856-28.68224 63.93856-63.93856 0-0.51712-0.01024-1.13152-0.0512-1.83808-0.95232-34.31424-29.45024-62.10048-63.88224-62.10048z m0.37888 83.11808c-0.25088-0.01536-0.50688-0.02048-0.76288-0.0256-10.36288-0.16384-18.79552-8.7552-18.79552-19.15392a19.2 19.2 0 0 1 19.17952-19.17952c10.39872 0 18.99008 8.448 19.15392 18.82624l0.0256 0.7424a19.21536 19.21536 0 0 1-18.80064 18.7904z m-364.46208-458.40384a22.3744 22.3744 0 0 0-19.27168 33.72032v0.00512l91.3664 155.33568a22.3744 22.3744 0 0 0 30.63296 7.94112 22.3744 22.3744 0 0 0 7.94624-30.62784v-0.00512l-91.3664-155.33568a22.3744 22.3744 0 0 0-19.30752-11.0336z m723.85536 0a22.35392 22.35392 0 0 0-19.30752 11.0336l-91.3664 155.33568a22.3744 22.3744 0 0 0 7.936 30.63296h0.00512a22.3744 22.3744 0 0 0 30.62784-7.93088l0.00512-0.01024 91.3664-155.33568a22.3744 22.3744 0 0 0-7.94112-30.63296 22.3232 22.3232 0 0 0-11.32544-3.09248z m49.5616 623.23712a22.38464 22.38464 0 0 0-15.8208 38.20032c45.68576 45.68576 45.68576 120.04864-0.00512 165.76512-45.69088 45.69088-120.04864 45.69088-165.76-0.00512a22.3744 22.3744 0 1 0-31.6416 31.65184c63.1552 63.15008 165.90848 63.15008 229.05344 0 63.13472-63.17056 63.13472-165.92384-0.00512-229.05344a22.3232 22.3232 0 0 0-15.8208-6.55872z m-827.87328 0a22.31296 22.31296 0 0 0-15.8208 6.54848c-30.60736 30.58688-47.4624 71.26016-47.4624 114.51904 0 43.25888 16.85504 83.93216 47.45728 114.53952 63.15008 63.15008 165.90336 63.15008 229.05344 0a22.3744 22.3744 0 0 0-31.64672-31.64672c-45.70112 45.70112-120.064 45.696-165.76512 0-22.14912-22.14912-34.35008-51.58912-34.35008-82.89792a116.3776 116.3776 0 0 1 34.34496-82.86208 22.37952 22.37952 0 0 0-15.81056-38.20032zM927.24736 553.3696a22.32832 22.32832 0 0 0-15.82592 6.5536l-197.40672 197.40672a22.3744 22.3744 0 1 0 31.64672 31.64672l197.40672-197.40672a22.3744 22.3744 0 0 0-15.8208-38.20032z m-827.87328 0a22.36928 22.36928 0 0 0-15.8208 38.20032l197.40672 197.40672a22.3744 22.3744 0 0 0 31.64672-31.64672L115.19488 559.9232a22.3232 22.3232 0 0 0-15.8208-6.5536zM328.38144 362.91584a22.37952 22.37952 0 0 0-22.37952 22.37952c0 61.93152 28.47744 118.74816 78.1312 155.88352a22.3744 22.3744 0 0 0 26.8032-35.84c-38.2464-28.60544-60.18048-72.36096-60.18048-120.04352a22.3744 22.3744 0 0 0-22.3744-22.37952z"  horiz-adv-x="1024" />

    
    <glyph glyph-name="smile" unicode="&#58922;" d="M943.798 242.25400000000002c-8.204 7.333-19.016 11.374-30.437 11.374-14.296 0-27.943-6.08-37.444-16.681-91.716-106.856-224.395-168.194-363.925-168.194-140.53 0-273.215 61.351-364.031 168.317-9.165 10.763-22.292 16.942-36.014 16.942-11.251 0-22.12-4.175-30.606-11.759-10.123-8.6-16.111-20.257-16.981-32.942-0.847-12.384 3.298-24.35 11.671-33.693 110.401-128.613 269.694-202.321 437.12-202.321 168.465 0 327.328 73.28 435.855 201.055 17.151 20.15 14.863 49.969-5.208 67.902zM786.373 500.576c44.518 0 80.734 37.071 80.734 82.637V703.895c0 44.798-36.972 82.646-80.734 82.646-43.766 0-80.734-37.848-80.734-82.646v-120.681c0-44.793 36.968-82.638 80.734-82.638zM238.467 500.576c43.771 0 80.746 37.845 80.746 82.637V703.895c0 44.798-36.975 82.646-80.746 82.646-43.761 0-80.731-37.848-80.731-82.646v-120.681c-0.001-44.793 36.97-82.638 80.731-82.638z"  horiz-adv-x="1024" />

    
    <glyph glyph-name="today" unicode="&#59085;" d="M512 691.2c-168.96 0-307.2-138.24-307.2-307.2s138.24-307.2 307.2-307.2 307.2 138.24 307.2 307.2-138.24 307.2-307.2 307.2z m0-552.96c-135.168 0-245.76 110.592-245.76 245.76s110.592 245.76 245.76 245.76 245.76-110.592 245.76-245.76-110.592-245.76-245.76-245.76z m30.72 258.048V527.36c0 11.264-9.216 20.48-20.48 20.48h-20.48c-11.264 0-20.48-9.216-20.48-20.48v-143.36c0-8.192 3.072-16.384 9.216-21.504l98.304-98.304c8.192-8.192 20.48-8.192 28.672 0l14.336 14.336c8.192 8.192 8.192 20.48 0 28.672L542.72 396.288z"  horiz-adv-x="1024" />

    
    <glyph glyph-name="liebiao" unicode="&#58936;" d="M837.8 896H186.2C109.4 896 46.5 833.2 46.5 756.4v-744.7c0-76.8 62.8-139.6 139.6-139.6h651.6c76.8 0 139.6 62.8 139.6 139.6V756.4C977.5 833.2 914.6 896 837.8 896z m93.1-884.4c0-51.3-41.8-93.1-93.1-93.1H186.2c-51.3 0-93.1 41.8-93.1 93.1V756.4c0 51.3 41.8 93.1 93.1 93.1h651.6c51.3 0 93.1-41.8 93.1-93.1v-744.8zM232.7 663.3h558.5v-46.5H232.7zM232.7 430.5h558.5V384H232.7zM232.7 197.8h558.5v-46.5H232.7z"  horiz-adv-x="1024" />

    
    <glyph glyph-name="chart" unicode="&#59376;" d="M1010.6 501.2c-44.3 189-193.2 337.7-382.3 381.5-2.9 0.7-5.7 1-8.4 1-19.3 0-35.9-15.7-35.9-36V457h391.5c23.2 0 40.3 21.6 35.1 44.2zM950.5 384H512V822.5c0 20-16.2 36.1-35.9 36.1-1 0-1.9 0-2.9-0.1C228.5 838.7 36 633.8 36 384c0-262.9 213.1-476 476-476 249.8 0 454.7 192.5 474.4 437.2 1.7 20.9-14.9 38.8-35.9 38.8z"  horiz-adv-x="1024" />

    
    <glyph glyph-name="smile1" unicode="&#58890;" d="M512-128C229.248-128 0 101.24800000000005 0 384 0 666.794667 229.248 896 512 896s512-229.205333 512-512c0-282.752-229.248-512-512-512z m0 938.666667C276.352 810.666667 85.333333 619.648 85.333333 384s191.018667-426.666667 426.666667-426.666667 426.666667 191.018667 426.666667 426.666667S747.648 810.666667 512 810.666667z m0-725.333334a298.666667 298.666667 0 0 0-298.666667 298.666667h85.333334a213.333333 213.333333 0 0 1 426.666666 0h85.333334a298.666667 298.666667 0 0 0-298.666667-298.666667z m213.333333 341.333334a85.333333 85.333333 0 1 0 0 170.666666 85.333333 85.333333 0 0 0 0-170.666666zM298.666667 426.666667a85.333333 85.333333 0 1 0 0 170.666666 85.333333 85.333333 0 0 0 0-170.666666z"  horiz-adv-x="1024" />

    
    <glyph glyph-name="breakfast" unicode="&#58905;" d="M1013.37 480.054c0 157.545-127.642 285.187-285.187 285.187-86.993 0-164.795-38.9655-217.093-100.327-52.2993 61.3612-130.101 100.327-217.093 100.327-157.545 0-285.187-127.642-285.187-285.187 0-82.721 37.93-151.849 91.3943-209.198l412.052-395.999L917.191 266.457c51.3932 53.4644 96.1841 128.547 96.1841 213.599ZM389.019 776.245c-23.949 33.3991-75.8599 71.0702-105.246 91.0061-9.06177 6.08432-21.2304-0.388362-21.2304-11.2625v-879.251c46.3445 0 83.7566 37.5415 83.7566 83.7566L344.746 418.953c41.8135 34.6937 110.294 265.381 44.2732 357.293ZM843.532 869.582c-25.373 0-46.0855-19.6769-46.0855-43.7554v-131.913h-55.2768V847.703c0 12.0391-10.3563 21.8778-23.0429 21.8778s-23.0429-9.83849-23.0429-21.8778v-153.791h-55.2768V825.825c0 24.0784-20.7126 43.7554-46.0855 43.7554v-263.051c0-45.5678 36.7649-83.2388 83.4977-87.7696v-502.928c0-21.4893 18.5119-39.095 41.1663-39.095S760.551-5.654999999999973 760.551 15.833999999999946V518.892c46.4739 4.78979 82.8505 42.3314 82.8505 87.7696v87.3813l0.129454 175.54Z"  horiz-adv-x="1024" />

    
    <glyph glyph-name="exercise" unicode="&#58937;" d="M803.59 45.450000000000045q-171.78-6.55-271.24 38.67C437.64 137.39 294.1 231.40999999999997 121.91 347q-41.55 36.78-11.27 109.8l65.27-38.52-65.27 41.35q81.06 152.29 169 247.78c41.22 44 101.13 100.05 146.48 0 25.9-73.88 90.16-73.88 146.48-78.84 72 5 90.44 28.46 101.41-45.05 8.86-70.65 68.31-243.43 214.09-349.15 80.09-68.5 82.49-122 45.07-168.94q-36.77-38.94-129.58-19.98zM724 433.24c34.09-68.38 87-143 164.11-198.91 80.09-68.5 82.49-122 45.07-168.94q-42-44.4-157-13.42-38.44 16.53-84.81 39.74L167.59 423.52q49.3 82.41 120.3 160.94c22.85 25.28 80.61 80.77 114.94 17.8 31.83-58.37 99-36.21 145.49-40.3 59.47 4.1 123.27 10.85 132.33-49.82 2.14-17.14 18.41-45.4 43.35-78.9zM543.2 631c9.89-1 19.77-1.66 29.43-2.51 72 5 90.44 28.46 101.41-45.05 8.86-70.65 68.31-243.43 214.09-349.15 80.09-68.5 82.49-122 45.07-168.94q-49.48-52.31-200.26 0L187.4 411q428.72-190.21 532.72-190.21 121 0-166 257.44A960.15 960.15 0 0 0 543.2 631zM858.39 18.75999999999999c-35.51 0-80 9.18-132.17 27.29l-2.24 0.78-2 1.27L83.64 452.45l8.92 16.76c54.61 102.59 112.49 187.39 172 252l0.12 0.13c22.66 24.16 64.84 69.14 110.93 61.52 27.79-4.59 51.05-27.16 69.15-67.08l0.37-0.82 0.3-0.85c19.74-56.31 64.93-60 117.25-64.24q5.06-0.41 10.07-0.83c14.1 1 26 2.8 36.55 4.37 22.8 3.39 40.82 6.06 56.63-4 12.56-8 22.19-21.78 28.33-62.92l0.06-0.47c4.17-33.26 20.42-91.31 53.52-154.46 27.08-51.68 75.49-125 152.27-180.66l0.66-0.48 0.62-0.53c42.11-36 66.09-70 73.32-103.84 6.86-32.13-1.74-63.56-25.55-93.43l-0.54-0.68-0.6-0.63c-20.38-21.6-50.56-32.55-89.63-32.55zM741.88 84c62.42-21.42 142.53-39.18 175.87-5.1 15.81 20.1 21.19 38.75 16.95 58.63-5.17 24.25-25.11 51.41-59.28 80.74C809.84 266 753.21 333.15 711.59 412.55c-35.59 67.84-53.18 131.28-57.84 168.13-4.5 30-9.29 33.87-9.82 34.21-2.9 1.85-17.74-0.35-28.58-2-11.1-1.65-24.92-3.7-41.32-4.83l-1.6-0.11-1.6 0.14c-3.78 0.33-7.59 0.64-11.43 1-28.36 2.31-57.68 4.69-84.81 16.33-32.53 14-54.61 38.26-67.46 74.28-8.34 18.2-21.63 40.06-38.17 42.8-24.46 4-58.09-31.77-74.3-49.06C240.74 634.87 188 558.65 137.73 466.67zM577.88 504.75h112.64A20.48 20.48 0 0 0 711 484.27a20.48 20.48 0 0 0-20.48-20.48H577.88a20.48 20.48 0 0 0-20.48 20.48 20.48 20.48 0 0 0 20.48 20.48zM618.84 412.59h112.64A20.48 20.48 0 0 0 752 392.11a20.48 20.48 0 0 0-20.48-20.48H618.84a20.48 20.48 0 0 0-20.48 20.48 20.48 20.48 0 0 0 20.48 20.48zM670 330.65999999999997h112.68a20.48 20.48 0 0 0 20.48-20.48 20.48 20.48 0 0 0-20.48-20.48H670a20.48 20.48 0 0 0-20.48 20.48A20.48 20.48 0 0 0 670 330.65999999999997zM762 24.149999999999977c-97.76 0-177.69 13.85-238.1 41.32l-0.8 0.36-0.77 0.43C419.8 123.92999999999995 263.8 227.08000000000004 110.5 330l-1.14 0.76-1 0.91c-18.65 16.51-30.68 36.84-34.78 58.79-4.82 25.82 1.73 53 19 78.53l34-22.89c-11.84-17.57-26.4-51.55 8-82.89C391.37 190.82000000000005 484.65 134.48000000000002 541.61 102.39999999999998c63.72-28.74 152.85-41 264.92-36.34l1.69-40.93q-23.73-0.98-46.22-0.98z"  horiz-adv-x="1024" />

    
    <glyph glyph-name="bt_duigou_B" unicode="&#58880;" d="M869.66 793.515L366.342 292.18600000000004 165.799 502.255 80.46 416.917l285.882-295.409 588.657 586.667-85.34 85.339z"  horiz-adv-x="1024" />

    
    <glyph glyph-name="learning" unicode="&#58889;" d="M996.5 608.9L567.6 827.2c-34.8 17.6-76.4 17.6-111.2 0L27.5 609.6C10.6 601 0 583.9 0 564.8c0-19 10.5-36.2 27.5-44.8l219.8-111.8v-305c0-33.9 18.8-64.4 49-79.7l164.9-83.6c15.9-8.1 33.4-12.1 50.9-12.1s35 4 50.9 12.1l164.9 83.6c30.2 15.3 49 45.9 49 79.7V407.8L901.4 471v-111.9c0-15.2 12.3-27.5 27.5-27.5s27.5 12.3 27.5 27.5V494.4c0 1.5-0.1 2.9-0.3 4.3l40.4 20.5c17 8.6 27.5 25.8 27.5 44.8 0 19.1-10.5 36.3-27.5 44.9zM721.8 103.10000000000002c0-13.1-7.2-24.8-18.9-30.8L538-11.299999999999955c-16.3-8.3-35.8-8.3-52.1 0L321 72.29999999999995c-11.6 5.9-18.9 17.7-18.9 30.8V380.20000000000005l154.2-78.5c17.4-8.8 36.5-13.2 55.6-13.2s38.2 4.4 55.6 13.2l154.2 78.2v-276.8z m-179 247.6c-19.3-9.8-42.3-9.8-61.5 0L60.5 564.8l420.7 213.4c19.3 9.8 42.3 9.8 61.5 0l420.7-214.1-420.6-213.4z"  horiz-adv-x="1024" />

    
    <glyph glyph-name="reading" unicode="&#58893;" d="M826.3 68.79999999999995H199.7c-53 0-96.1 43.1-96.1 96.1V581.1c0 53 43.1 96.1 96.1 96.1h626.6c53 0 96.1-43.1 96.1-96.1v-416.2c0-53-43.1-96.1-96.1-96.1z m-626.6 560c-26.3 0-47.7-21.4-47.7-47.7v-416.2c0-26.3 21.4-47.7 47.7-47.7h626.6c26.3 0 47.7 21.4 47.7 47.7V581.1c0 26.3-21.4 47.7-47.7 47.7H199.7zM511.4 3c-13.8 0-25 11.2-25 25V643c0 13.8 11.2 25 25 25s25-11.2 25-25v-615c0-13.8-11.2-25-25-25zM375.8 431.9c-4.2 0-8.3 0.8-12.3 2.5l-43.6 18.1-43.1-18c-9.8-4.1-21-3.1-29.9 2.8-8.9 5.9-14.2 15.8-14.2 26.5V652.7c0 13.8 11.2 25 25 25s25-11.2 25-25v-161.6l25.1 10.5c7.8 3.2 16.5 3.2 24.3 0l25.6-10.6V644.4c0 13.8 11.2 25 25 25s25-11.2 25-25v-180.7c0-10.7-5.3-20.6-14.2-26.5-5.4-3.6-11.6-5.3-17.7-5.3zM392.2 207H248.1c-13.8 0-25 11.2-25 25s11.2 25 25 25h144.1c13.8 0 25-11.2 25-25s-11.2-25-25-25zM784.5 208h-150c-13.8 0-25 11.2-25 25s11.2 25 25 25h150c13.8 0 25-11.2 25-25s-11.2-25-25-25zM724.5 337h-90c-13.8 0-25 11.2-25 25s11.2 25 25 25h90c13.8 0 25-11.2 25-25s-11.2-25-25-25zM774.5 477h-140c-13.8 0-25 11.2-25 25s11.2 25 25 25h140c13.8 0 25-11.2 25-25s-11.2-25-25-25zM352.2 327H248.1c-13.8 0-25 11.2-25 25s11.2 25 25 25h104.1c13.8 0 25-11.2 25-25s-11.2-25-25-25z"  horiz-adv-x="1024" />

    
    <glyph glyph-name="menu" unicode="&#58881;" d="M120 683.8m-43.2 0a43.2 43.2 0 1 1 86.4 0 43.2 43.2 0 1 1-86.4 0ZM894.6 640.6H298.1c-23.8 0-43.2 19.4-43.2 43.2 0 23.8 19.4 43.2 43.2 43.2h596.5c23.8 0 43.2-19.4 43.2-43.2 0-23.7-19.4-43.2-43.2-43.2zM120 385.6m-43.2 0a43.2 43.2 0 1 1 86.4 0 43.2 43.2 0 1 1-86.4 0ZM894.6 342.4H298.1c-23.8 0-43.2 19.4-43.2 43.2 0 23.8 19.4 43.2 43.2 43.2h596.5c23.8 0 43.2-19.4 43.2-43.2 0-23.8-19.4-43.2-43.2-43.2zM120 87.3m-43.2 0a43.2 43.2 0 1 1 86.4 0 43.2 43.2 0 1 1-86.4 0ZM894.6 44.1H298.1c-23.8 0-43.2 19.4-43.2 43.2 0 23.8 19.4 43.2 43.2 43.2h596.5c23.8 0 43.2-19.4 43.2-43.2 0-23.7-19.4-43.2-43.2-43.2z"  horiz-adv-x="1024" />

    
    <glyph glyph-name="fullscreen" unicode="&#58884;" d="M169.7 5.6c-8.7 0-17.4 3.3-24 9.9-13.2 13.2-13.2 34.7 0 48l200.9 200.9c13.2 13.2 34.7 13.2 48 0 13.2-13.2 13.2-34.7 0-48L193.7 15.5c-6.6-6.6-15.3-9.9-24-9.9zM659.5 495.5c-8.7 0-17.4 3.3-24 9.9-13.2 13.2-13.2 34.7 0 48L825 742.9c13.2 13.2 34.7 13.2 48 0 13.2-13.2 13.2-34.7 0-48L683.4 505.4c-6.6-6.6-15.3-9.9-23.9-9.9zM856 0.8c-8.8 0-17.5 3.4-24.2 10.1L632.7 213c-13.2 13.3-13 34.8 0.3 48 13.3 13.2 34.8 13 48-0.3l199.2-202.1c13.2-13.3 13-34.8-0.3-48-6.7-6.5-15.3-9.8-23.9-9.8zM368.8 493.2c-8.8 0-17.5 3.4-24.1 10.1L153.2 697.4c-13.2 13.3-13 34.8 0.3 48 13.3 13.2 34.8 13 48-0.3L393 551c13.2-13.3 13-34.8-0.3-48-6.7-6.5-15.3-9.8-23.9-9.8zM134.1 442.3c-18.7 0-33.9 15.2-33.9 33.9V690.8c0 57.7 46.9 104.6 104.6 104.6h201.5c18.7 0 33.9-15.2 33.9-33.9s-15.2-33.9-33.9-33.9H204.8c-20.3 0-36.8-16.5-36.8-36.8v-214.6c0-18.7-15.1-33.9-33.9-33.9zM894 442.3c-18.7 0-33.9 15.2-33.9 33.9V690.8c0 20.3-16.5 36.8-36.8 36.8H631.2c-18.7 0-33.9 15.2-33.9 33.9s15.2 33.9 33.9 33.9h192.1c57.7 0 104.6-46.9 104.6-104.6v-214.6c0-18.7-15.2-33.9-33.9-33.9zM406.4-29.9H204.8c-57.7 0-104.6 46.9-104.6 104.6V289.2c0 18.7 15.2 33.9 33.9 33.9S168 308 168 289.2v-214.6c0-20.3 16.5-36.8 36.8-36.8h201.5c18.7 0 33.9-15.2 33.9-33.9s-15.1-33.8-33.8-33.8zM823.3-29.9H631.2c-18.7 0-33.9 15.2-33.9 33.9s15.2 33.9 33.9 33.9h192.1c20.3 0 36.8 16.5 36.8 36.8V289.2c0 18.7 15.2 33.9 33.9 33.9s33.9-15.2 33.9-33.9v-214.6c0-57.6-46.9-104.5-104.6-104.5z"  horiz-adv-x="1024" />

    
    <glyph glyph-name="information" unicode="&#58885;" d="M319.6 400.1m-41 0a41 41 0 1 1 82 0 41 41 0 1 1-82 0ZM525.4 400.1m-41 0a41 41 0 1 1 82 0 41 41 0 1 1-82 0ZM721.2 400.1m-41 0a41 41 0 1 1 82 0 41 41 0 1 1-82 0ZM528.8 756.3c47 0 92.5-9 135.3-26.6 41.3-17 78.4-41.4 110.2-72.5 31.7-31 56.6-66.9 73.9-107 17.9-41.3 27-85.2 27-130.5s-9.1-89.2-27-130.5c-17.4-40-42.2-76-73.9-107-31.8-31.1-68.9-55.4-110.2-72.5-42.8-17.7-88.3-26.6-135.3-26.6-29.1 0-58 3.5-85.9 10.4-27 6.7-53.2 16.6-77.8 29.5-10.9 5.7-23.3 8.6-36.7 8.6-11 0-23.2-1.9-37.2-6.1-3.8 37.1-11.8 59.6-26.2 76-26.2 29.9-46.6 63.5-60.7 100-14.6 37.7-21.9 77.5-21.9 118.2 0 45.3 9.1 89.2 27 130.5 17.4 40 42.2 76 73.9 107 31.8 31.1 68.9 55.4 110.2 72.5 42.8 17.6 88.3 26.6 135.3 26.6m0 61.4c-225.2 0-407.8-178.2-407.8-398 0-98.8 36.9-189.2 97.9-258.7 17.6-20.1 13.3-129.1 13.3-129.1s67.3 38.2 96.2 38.2c3.3 0 6.1-0.5 8.3-1.6 57.2-29.9 122.7-46.8 192.1-46.8 225.2 0 407.8 178.2 407.8 398s-182.5 398-407.8 398z"  horiz-adv-x="1024" />

    
    <glyph glyph-name="edit" unicode="&#58888;" d="M825.4-30.2H185c-29.8 0-58.1 10-79.6 28.1-22.8 19.2-35.9 46.4-35.9 74.5v518c0 28.1 13.1 55.2 35.9 74.5C126.9 683 155.2 693 185 693h471.3c18.4 0 33.4-14.9 33.4-33.4s-14.9-33.4-33.4-33.4H185c-26.4 0-48.8-16.4-48.8-35.8v-518c0-19.4 22.3-35.8 48.8-35.8h640.4c26.4 0 48.8 16.4 48.8 35.8v518c0 18.4 14.9 33.4 33.4 33.4s33.4-14.9 33.4-33.4v-518c0-28.1-13.1-55.2-35.9-74.5-21.6-18.1-49.9-28.1-79.7-28.1zM880.2 650.7L547.3 183.6l-85.4 64.7 333 467.1zM930.9 716.4l-24-33.7-85.3 64.7 24 33.7c17.2 24.1 50.2 29.1 73.7 11.2 23.6-17.9 28.8-51.9 11.6-75.9zM414.4 89.7l109.5 61.5-85.3 64.8z"  horiz-adv-x="1024" />

    
    <glyph glyph-name="delete" unicode="&#58891;" d="M774.8-30h-519c-31.1 0-60.5 10.8-82.9 30.5-23.5 20.7-36.4 48.6-36.4 78.5V583.2c0 18 14.6 32.7 32.7 32.7s32.7-14.6 32.7-32.7V79c0-24.1 24.2-43.7 54-43.7H775c29.8 0 54 19.6 54 43.7V583.2c0 18 14.6 32.7 32.7 32.7s32.7-14.6 32.7-32.7V79c-0.2-60.1-53.8-109-119.6-109zM691.8 732.5H327.2c-18 0-32.7 14.6-32.7 32.7s14.6 32.7 32.7 32.7h364.6c18 0 32.7-14.6 32.7-32.7s-14.6-32.7-32.7-32.7zM388.1 81.6c-18 0-32.7 14.6-32.7 32.7v307c0 18 14.6 32.7 32.7 32.7s32.7-14.6 32.7-32.7v-307c-0.1-18.1-14.7-32.7-32.7-32.7zM642.5 83.9c-18 0-32.7 14.6-32.7 32.7v307c0 18 14.6 32.7 32.7 32.7s32.7-14.6 32.7-32.7v-307c-0.1-18.1-14.7-32.7-32.7-32.7zM917.3 586.5h-804c-18 0-32.7 14.6-32.7 32.7s14.6 32.7 32.7 32.7h804c18 0 32.7-14.6 32.7-32.7s-14.6-32.7-32.7-32.7z"  horiz-adv-x="1024" />

    
    <glyph glyph-name="alarm" unicode="&#58892;" d="M907.2-31H118.8c-17.7 0-32 14.3-32 32s14.3 32 32 32h788.5c17.7 0 32-14.3 32-32s-14.4-32-32.1-32zM783.1-30.9c-17.7 0-32 14.3-32 32V390.7c0 119.6-106.8 217-238.1 217s-238.1-97.3-238.1-217v-389.5c0-17.7-14.3-32-32-32s-32 14.3-32 32V390.7c0 38.2 8.1 75.3 24.1 110.3 15.4 33.5 37.3 63.6 65.3 89.3 56.9 52.5 132.5 81.4 212.7 81.4 80.2 0 155.7-28.9 212.7-81.4 27.9-25.8 49.9-55.8 65.3-89.3 16-34.9 24.1-72 24.1-110.3v-389.5c0-17.7-14.3-32.1-32-32.1zM446.1 63c-8.2 0-16.4 3.1-22.6 9.4-12.5 12.5-12.5 32.7 0 45.2l108.1 108.1L401.2 347c-6.4 5.9-10.1 14.2-10.2 23-0.1 8.7 3.3 17.1 9.5 23.2L523.2 514c12.6 12.4 32.8 12.3 45.2-0.3 12.4-12.6 12.3-32.8-0.3-45.2l-98.8-97.4 130.2-121.2c6.4-5.9 10-14.2 10.2-22.8 0.2-8.7-3.2-17-9.4-23.2L468.8 72.4c-6.3-6.3-14.5-9.4-22.7-9.4zM166.8 374.7c-3.3 0-6.7 0.8-9.8 2.4l-51.2 26.6c-10.5 5.4-14.5 18.3-9.1 28.7 5.4 10.5 18.3 14.5 28.7 9.1l51.2-26.6c10.5-5.4 14.5-18.3 9.1-28.7-3.7-7.3-11.2-11.5-18.9-11.5zM239.8 592.4c-6.4 0-12.7 2.8-16.9 8.3l-42.6 55.1c-7.2 9.3-5.5 22.7 3.8 29.9 9.3 7.2 22.7 5.5 29.9-3.8l42.6-55.1c7.2-9.3 5.5-22.7-3.8-29.9-3.9-3-8.5-4.5-13-4.5zM787.7 592.4c-4.6 0-9.2 1.5-13 4.5-9.3 7.2-11 20.6-3.8 29.9l42.6 55.1c7.2 9.3 20.6 11 29.9 3.8 9.3-7.2 11-20.6 3.8-29.9l-42.6-55.1c-4.3-5.4-10.6-8.3-16.9-8.3zM863.8 370.1c-7.1 0-14 3.5-18 9.9-6.3 9.9-3.4 23.1 6.6 29.4l49.1 31.2c9.9 6.3 23.1 3.4 29.4-6.6 6.3-9.9 3.4-23.1-6.6-29.4l-49.1-31.2c-3.6-2.2-7.5-3.3-11.4-3.3zM523.5 702.5c-11.7 0-21.3 9.5-21.3 21.2l-0.4 69.7c-0.1 11.8 9.4 21.4 21.2 21.4 11.8 0.1 21.4-9.4 21.4-21.2l0.4-69.7c0.1-11.8-9.4-21.4-21.2-21.4h-0.1z"  horiz-adv-x="1024" />

    
    <glyph glyph-name="telephone" unicode="&#58894;" d="M721.3-21.4c-10.5 0-20.7 0.9-30.6 2.7-5.7 0.7-11.8 2-18.5 3.8-89 20.6-179.4 60.3-261.3 114.9-49.6 33-96 73.9-137.8 121.7-37.3 42.5-70.3 89.4-97.9 139.3-24.9 45-44.8 91.7-57.5 134.9-12.4 42.2-17.8 80.3-15.5 110.4 0 2.6 0.1 5.8 0.6 9.4 1.6 15.8 4.6 31.5 9.2 48.2l0.3 1.1 0.4 1c25.8 72.4 94.7 121 171.4 121 10.1 0 19.7-0.8 28.5-2.5 42.3-6.5 81-28 109.1-60.5 28.6-33 44.3-75.2 44.3-118.9 0-38.7-4.1-69.7-24.1-95-12.6-16-29.3-27.3-52.9-38.5 18.5-29.9 47.9-68.9 82.2-108.6 35.6-41.3 70.9-76.7 97.8-98.7 7.1 7.8 14.4 14.7 23.7 23.5l4.1 3.9c28.5 26.8 64.2 43.4 103.3 48.1h0.2c48.1 5.6 95.4-7.9 133.4-38s62-73.1 67.5-121.1c1.7-14.9 1.7-29.5-0.3-43.4-4.8-39.5-23-76.9-51.3-105.4-28.7-28.9-66.9-47.5-107.5-52.3h-0.3c-6.9-0.6-13.8-1-20.5-1zM163.2 606.9v-3.1l-0.1-1.3c-4.1-49.4 21.6-132.7 65.5-212 25.5-46.1 55.9-89.4 90.3-128.6 38.3-43.7 80.7-81.1 125.8-111.1 76.1-50.7 159.7-87.4 241.9-106.4l1.4-0.4c4.4-1.2 7.9-2 10.9-2.3l1.1-0.1 1.1-0.2c10.5-2 22-2.4 34-1.1 27.3 3.3 51.9 15.3 71.2 34.7 18.8 18.9 30.9 43.7 34 69.9l0.1 0.5c1.2 8.9 1.3 18.5 0.1 28.3-3.7 31.9-19.6 60.4-44.8 80.3-25.2 19.9-56.5 28.9-88.4 25.2-26-3.2-49.8-14.2-68.8-32l-3.9-3.7c-16.6-15.7-23.5-22.2-34.9-38.6l-16.5-23.6-24.5 15.2c-47.3 29.2-109.2 98.3-133.7 126.6-50.4 58.4-90.2 114.7-106.6 150.6l-13.2 29.1 29.6 11.9c29.9 12 50.2 21.7 59.3 33.2 7.8 9.8 10.9 26.4 10.9 57.1 0 29-10.4 57.1-29.4 79-18.8 21.7-44.6 36-72.7 40.2l-1.1 0.2c-5.3 1-11.2 1.5-17.7 1.5-50.6 0-96.1-31.9-113.5-79.5-3.6-13.1-5.9-25.5-7.1-37.6l-0.1-1.3-0.2-0.6z m0 0.3zM794.1 439.7c-9.9 0-18.7 7-20.6 17.1-7 37.3-22.6 72.9-45.2 103.1-23.7 31.6-53.9 56.4-89.8 73.6-19.7 9.5-41.5 16.3-64.6 20.3-11.4 2-19.1 12.8-17.1 24.3 2 11.4 12.8 19.1 24.3 17.1 27-4.7 52.5-12.7 75.6-23.8 41.4-19.9 77.8-49.7 105.3-86.3 26.5-35.3 44.7-77 52.9-120.6 2.1-11.4-5.4-22.4-16.8-24.5-1.5-0.2-2.8-0.3-4-0.3zM680.4 441.2c-9.2 0-17.6 6-20.2 15.3-8.9 31.6-30.8 57.8-60.1 71.9-7 3.4-16.6 6.4-27.7 8.7-11.3 2.4-18.6 13.5-16.2 24.9 2.4 11.3 13.5 18.6 24.9 16.2 14.6-3.1 27.1-7.1 37.2-11.9 40.1-19.2 70.1-55.1 82.3-98.3 3.2-11.2-3.3-22.8-14.5-25.9-1.9-0.6-3.8-0.9-5.7-0.9zM892.2 438.3c-10.6 0-19.7 7.9-20.8 18.7-6.1 55.7-26.1 109.3-57.6 155.1-32.6 47.3-77.4 85.5-129.4 110.5-34.1 16.4-71.2 26.7-110.1 30.8-11.5 1.2-19.9 11.5-18.7 23.1 1.2 11.5 11.5 19.9 23.1 18.7 43.7-4.6 85.4-16.2 123.9-34.7 58.7-28.1 109.1-71.2 145.9-124.5 35.5-51.4 57.9-111.7 64.8-174.3 1.3-11.5-7-21.9-18.6-23.2-0.9-0.1-1.7-0.2-2.5-0.2zM794.1 439.7c-9.9 0-18.7 7-20.6 17.1-7 37.3-22.6 72.9-45.2 103.1-23.7 31.6-53.9 56.4-89.8 73.6-19.7 9.5-41.5 16.3-64.6 20.3-11.4 2-19.1 12.8-17.1 24.3 2 11.4 12.8 19.1 24.3 17.1 27-4.7 52.5-12.7 75.6-23.8 41.4-19.9 77.8-49.7 105.3-86.3 26.5-35.3 44.7-77 52.9-120.6 2.1-11.4-5.4-22.4-16.8-24.5-1.5-0.2-2.8-0.3-4-0.3z"  horiz-adv-x="1024" />

    
    <glyph glyph-name="sync" unicode="&#58895;" d="M278.5 62.8c-6.4 0-12.9 1.9-18.6 5.8C152 143.7 90.2 255.1 90.2 374.1c0 58.3 14.5 114.5 43.2 166.9 27.4 50.1 66.1 94 115.1 130.4 14.4 10.7 34.8 7.7 45.6-6.7 10.7-14.4 7.7-34.8-6.7-45.6-41.4-30.8-73.9-67.6-96.8-109.4-23.4-42.7-35.2-88.3-35.2-135.6 0-97.4 51.7-189.3 141.8-252 14.8-10.3 18.4-30.6 8.1-45.3-6.4-9.2-16.5-14-26.8-14zM764.9 42.3c-9.3 0-18.6 4-25.1 11.7-11.5 13.8-9.6 34.4 4.2 45.9 81.2 67.5 127.8 165.6 127.8 269C871.8 475.2 823 575 738 642.7c-14.1 11.2-16.4 31.7-5.2 45.8 11.2 14.1 31.7 16.4 45.8 5.2C879.3 613.5 937 495.1 937 368.9c0-122.8-55.1-239.1-151.3-319.1-6.1-5-13.5-7.5-20.8-7.5zM752.5 787.7c-6.5 3.7-14 5.9-22 5.9H298.1c-25 0-45.3-20.3-45.3-45.3V571c0-25 20.3-45.3 45.3-45.3h428.1L581.7 650.3l170.8 137.4zM768.5 546.6c4.6 7.1 7.3 15.4 7.3 24.5V748.3c0 0.7-0.2 1.4-0.2 2.2l-126-101.3 118.9-102.6zM276.1-25.7c6.5-3.7 14-5.9 22-5.9h432.4c25 0 45.3 20.3 45.3 45.3V190.9c0 25-20.3 45.3-45.3 45.3H302.4l144.5-124.5-170.8-137.4zM260.1 215.4c-4.6-7.1-7.3-15.4-7.3-24.5v-177.3c0-0.7 0.2-1.4 0.2-2.2l126 101.3-118.9 102.7z"  horiz-adv-x="1024" />

    
    <glyph glyph-name="add" unicode="&#58896;" d="M679.2 354.5h-336c-17.2 0-31.1 13.9-31.1 31.1 0 17.2 13.9 31.1 31.1 31.1h336c17.2 0 31.1-13.9 31.1-31.1 0-17.2-13.9-31.1-31.1-31.1zM510.6 186.5h-0.1c-17.2 0.1-31 14-31 31.2l1.1 336c0.1 17.1 14 31 31.1 31h0.1c17.2-0.1 31-14 31-31.2l-1.1-336c0-17.2-13.9-31-31.1-31zM511.2-61.1c-60.3 0-118.8 11.8-173.9 35.1-53.2 22.5-101 54.7-142 95.7s-73.2 88.8-95.7 142c-23.3 55.1-35.1 113.6-35.1 173.9 0 60.3 11.8 118.8 35.1 173.9 22.5 53.2 54.7 101 95.7 142s88.8 73.2 142 95.7c55.1 23.3 113.6 35.1 173.9 35.1S630 820.4 685.1 797.1c53.2-22.5 101-54.7 142-95.7s73.2-88.8 95.7-142c23.3-55.1 35.1-113.6 35.1-173.9 0-60.3-11.8-118.8-35.1-173.9-22.5-53.2-54.7-101-95.7-142s-88.8-73.2-142-95.7c-55.1-23.2-113.6-35-173.9-35z m0 831.2c-51.9 0-102.3-10.2-149.7-30.2-45.8-19.4-86.9-47.1-122.2-82.4s-63.1-76.4-82.4-122.2c-20-47.4-30.2-97.7-30.2-149.7s10.2-102.3 30.2-149.7c19.4-45.8 47.1-86.9 82.4-122.2 35.3-35.3 76.4-63.1 122.2-82.4 47.4-20 97.7-30.2 149.7-30.2 51.9 0 102.3 10.2 149.7 30.2 45.8 19.4 86.9 47.1 122.2 82.4 35.3 35.3 63.1 76.4 82.4 122.2 20 47.4 30.2 97.7 30.2 149.7s-10.2 102.3-30.2 149.7c-19.4 45.8-47.1 86.9-82.4 122.2-35.3 35.3-76.4 63.1-122.2 82.4-47.4 20-97.8 30.2-149.7 30.2z"  horiz-adv-x="1024" />

    
    <glyph glyph-name="half-size" unicode="&#58897;" d="M169.4 3c-8.7 0-17.4 3.3-24 9.9a33.86 33.86 0 0 0 0 48l201 201a33.86 33.86 0 0 0 48 0 33.86 33.86 0 0 0 0-48l-201-201c-6.7-6.5-15.4-9.9-24-9.9zM659.3 493.2c-8.7 0-17.4 3.3-24 9.9a33.86 33.86 0 0 0 0 48L825 740.8a33.86 33.86 0 0 0 48 0 33.86 33.86 0 0 0 0-48L683.3 503.2c-6.6-6.7-15.3-10-24-10zM856-1.7c-8.8 0-17.5 3.4-24.2 10.1L632.5 210.6c-13.2 13.3-13 34.8 0.3 48 13.3 13.2 34.8 13 48-0.3l199.3-202.2c13.2-13.3 13-34.8-0.3-48-6.6-6.5-15.2-9.8-23.8-9.8zM368.5 490.9c-8.8 0-17.5 3.4-24.2 10.1L152.8 695.3c-13.2 13.3-13 34.8 0.3 48 13.3 13.2 34.8 13 48-0.3l191.6-194.2c13.2-13.3 13-34.8-0.3-48-6.7-6.6-15.3-9.9-23.9-9.9zM335.4 440H133.7c-18.7 0-33.9 15.2-33.9 33.9s15.2 33.9 33.9 33.9h201.6c20.3 0 36.8 16.5 36.8 36.8V759.4c0 18.7 15.2 33.9 33.9 33.9s33.9-15.2 33.9-33.9v-214.7C440 487 393.1 440 335.4 440zM894 440H701.8c-57.7 0-104.7 47-104.7 104.7V759.4c0 18.7 15.2 33.9 33.9 33.9s33.9-15.2 33.9-33.9v-214.7c0-20.3 16.5-36.8 36.8-36.8H894c18.7 0 33.9-15.2 33.9-33.9s-15.2-34-33.9-34zM406.1-32.5c-18.7 0-33.9 15.2-33.9 33.9V216.1c0 20.3-16.5 36.8-36.8 36.8H133.7c-18.7 0-33.9 15.2-33.9 33.9s15.2 33.9 33.9 33.9h201.6c57.7 0 104.7-47 104.7-104.7v-214.7c0-18.6-15.2-33.8-33.9-33.8zM631.1-32.5c-18.7 0-33.9 15.2-33.9 33.9V216.1c0 57.7 47 104.7 104.7 104.7H894c18.7 0 33.9-15.2 33.9-33.9S912.7 253 894 253H701.8c-20.3 0-36.8-16.5-36.8-36.8v-214.7c0-18.8-15.2-34-33.9-34z"  horiz-adv-x="1024" />

    
    <glyph glyph-name="scan" unicode="&#58898;" d="M670.4 333H355c-27 0-48.8 21.9-48.8 48.8 0 27 21.9 48.8 48.8 48.8h315.4c27 0 48.8-21.9 48.8-48.8S697.3 333 670.4 333zM445.7-25H254.3c-81.9 0-148.5 70.5-148.5 157.2V309c0 27 21.9 48.8 48.8 48.8s48.8-21.9 48.8-48.8v-176.8c0-32.3 23.3-59.6 50.8-59.6h191.4c27 0 48.8-21.9 48.8-48.8S472.7-25 445.7-25zM870.7 405.9c-27 0-48.8 21.9-48.8 48.8V631.5c0 32.3-23.3 59.6-50.8 59.6H579.7c-27 0-48.8 21.9-48.8 48.8s21.9 48.8 48.8 48.8h191.4c81.9 0 148.5-70.5 148.5-157.2v-176.8c0-26.9-21.9-48.8-48.9-48.8zM154.7 405.9c-27 0-48.8 21.9-48.8 48.8V631.5c0 86.7 66.6 157.2 148.5 157.2h191.4c27 0 48.8-21.9 48.8-48.8s-21.9-48.8-48.8-48.8H254.3c-27.6 0-50.8-27.3-50.8-59.6v-176.8c0-26.9-21.9-48.8-48.8-48.8zM771.1-25H579.7c-27 0-48.8 21.9-48.8 48.8s21.9 48.8 48.8 48.8h191.4c27.6 0 50.8 27.3 50.8 59.6V309c0 27 21.9 48.8 48.8 48.8 27 0 48.8-21.9 48.8-48.8v-176.8c0.1-86.7-66.6-157.2-148.4-157.2z"  horiz-adv-x="1024" />

    
    <glyph glyph-name="search" unicode="&#58899;" d="M428.1 97.4c-46.6 0-91.8 9.1-134.4 27.2-41.1 17.4-78 42.3-109.7 74-31.7 31.7-56.6 68.6-74 109.7-18 42.6-27.1 87.8-27.1 134.4S92 534.5 110 577.1c17.4 41.1 42.3 78 74 109.7s68.6 56.6 109.7 74c42.6 18 87.8 27.1 134.4 27.1s91.8-9.1 134.4-27.1c41.1-17.4 78-42.3 109.7-74 31.7-31.7 56.6-68.6 74-109.7 18-42.6 27.2-87.8 27.2-134.4s-9.1-91.8-27.2-134.4c-17.4-41.1-42.3-78-74-109.7-31.7-31.7-68.6-56.6-109.7-74-42.6-18-87.8-27.2-134.4-27.2z m0 602.2c-68.6 0-133.2-26.7-181.7-75.3s-75.3-113.1-75.3-181.7 26.7-133.2 75.3-181.7 113.1-75.3 181.7-75.3 133.2 26.7 181.7 75.3S685 374.1 685 442.7s-26.7 133.2-75.3 181.7-113 75.2-181.6 75.2zM791.1 49.2c-10.8 0-21.7 4-30.2 11.9L615.7 197.2c-17.8 16.7-18.7 44.6-2 62.4 16.7 17.8 44.6 18.7 62.4 2l145.1-136.1c17.8-16.7 18.7-44.6 2-62.4-8.6-9.3-20.4-13.9-32.1-13.9z"  horiz-adv-x="1024" />

    
    <glyph glyph-name="people" unicode="&#58900;" d="M527.2 316.8c-57.6 0-111.8 22.4-152.5 63.2-40.7 40.7-63.2 94.9-63.2 152.5 0 57.6 22.4 111.8 63.2 152.5s94.9 63.2 152.5 63.2c57.6 0 111.8-22.4 152.5-63.2s63.2-94.9 63.2-152.5c0-57.6-22.4-111.8-63.2-152.5-40.8-40.7-94.9-63.2-152.5-63.2z m0 345.1c-71.3 0-129.4-58-129.4-129.4s58-129.4 129.4-129.4c71.3 0 129.4 58 129.4 129.4s-58.1 129.4-129.4 129.4zM880 31.4c-23.8 0-43.1 19.3-43.1 43.1 0 58.3-30.7 113.8-86.4 156.3-28.5 21.8-61.9 38.9-99.2 51-39.2 12.7-81 19.1-124.1 19.1-43.1 0-84.9-6.4-124.1-19.1-37.3-12.1-70.7-29.2-99.2-51-55.7-42.6-86.4-98.1-86.4-156.3 0-23.8-19.3-43.1-43.1-43.1s-43.1 19.3-43.1 43.1c0 43.8 11.1 86.1 33.1 125.8 20.7 37.3 50 70.7 87.2 99.1 74.1 56.6 172 87.8 275.7 87.8 103.7 0 201.6-31.2 275.7-87.8 37.2-28.4 66.5-61.7 87.2-99.1 22-39.7 33.1-82 33.1-125.8-0.2-23.8-19.5-43.1-43.3-43.1z"  horiz-adv-x="1024" />

    
    <glyph glyph-name="date" unicode="&#58901;" d="M854 2.5H172.1c-39.8 0-72.2 31.9-72.2 71.1V599.4c0 39.1 32.3 71 71.9 71.1l107.7 0.8 0.7-94.4-85.9-0.7v-479.4h637.4v479l-68.3-0.8-1.2 94.4 91.7 1.1c39.8 0 72.2-31.9 72.2-71.1v-525.8c0.1-39.2-32.3-71.1-72.1-71.1zM393.93 667.907l253.3 0.983 0.348-89.6-253.3-0.983zM339.7 506.8h-0.2c-26.1 0.1-47.1 21.4-47 47.4l0.8 170.7c0.1 26.1 21.4 47.1 47.4 47 26.1-0.1 47.1-21.4 47-47.4l-0.8-170.7c-0.1-26-21.2-47-47.2-47zM701.7 507.9h-0.2c-26.1 0.1-47.1 21.4-47 47.5l0.8 164.4c0.1 26 21.2 47 47.2 47h0.2c26.1-0.1 47.1-21.4 47-47.5l-0.8-164.4c-0.2-26-21.3-47-47.2-47zM304.1 339.9m-31.5 0a31.5 31.5 0 1 1 63 0 31.5 31.5 0 1 1-63 0ZM442.1 339.9m-31.5 0a31.5 31.5 0 1 1 63 0 31.5 31.5 0 1 1-63 0ZM580.2 339.9m-31.5 0a31.5 31.5 0 1 1 63 0 31.5 31.5 0 1 1-63 0ZM718.2 339.9m-31.5 0a31.5 31.5 0 1 1 63 0 31.5 31.5 0 1 1-63 0ZM304.1 203.5m-31.5 0a31.5 31.5 0 1 1 63 0 31.5 31.5 0 1 1-63 0ZM442.1 203.5m-31.5 0a31.5 31.5 0 1 1 63 0 31.5 31.5 0 1 1-63 0ZM580.2 203.5m-31.5 0a31.5 31.5 0 1 1 63 0 31.5 31.5 0 1 1-63 0ZM718.2 203.5m-31.5 0a31.5 31.5 0 1 1 63 0 31.5 31.5 0 1 1-63 0ZM744.2 423.8H281.9c-17.4 0-31.5 14.1-31.5 31.5s14.1 31.5 31.5 31.5h462.3c17.4 0 31.5-14.1 31.5-31.5s-14.1-31.5-31.5-31.5z"  horiz-adv-x="1024" />

    
    <glyph glyph-name="back" unicode="&#58902;" d="M613.7-29.1c-15.6 0-31 7.2-40.9 20.8L300.2 366.3c-13.3 18.2-12.8 43 1 60.8l272.7 349c17.2 22 48.9 25.9 70.9 8.7 22-17.2 25.9-48.9 8.7-70.9l-249.2-319 250.2-343.8c16.4-22.5 11.4-54.1-11.1-70.5-9-6.6-19.4-9.7-29.7-9.7z"  horiz-adv-x="1024" />

    
    <glyph glyph-name="message" unicode="&#58904;" d="M867.2 66.4c-6.1 10.6-9.3 22.6-9.4 34.8l-2.9 351.6c0 158-131.2 287.2-291.4 287.2H449c-160.3 0-291.4-129.3-291.4-287.2l2.9-357.8c0.1-12.5-3-24.9-9-35.9l-6.1-11.1c-26.1-47.9 9.1-106 64.3-106h603.9c55.9 0 91 59.4 63.5 107.3l-9.9 17.1zM778 44.7l-523.2 2.2 0.9 0.8c14.5 13.8 21.1 35.6 20.9 55.4l-0.2 347.1c0 98.3 69.1 185.7 168.8 185.7H572c99.7 0 159.8-94 159.8-192.2l3.8-339.9c0.2-21.9 17.6-40.1 35.1-53.6l7.3-5.5zM519.9 674.9h-16.7c-27 0-49.1 22.1-49.1 49.1v46.9c0 27 22.1 49.1 49.1 49.1h16.7c27 0 49.1-22.1 49.1-49.1V724c0-27-22.1-49.1-49.1-49.1z"  horiz-adv-x="1024" />

    
    <glyph glyph-name="sync-" unicode="&#58906;" d="M278.5 62.8c-6.4 0-12.9 1.9-18.6 5.8C152 143.7 90.2 255.1 90.2 374.1c0 58.3 14.5 114.5 43.2 166.9 27.4 50.1 66.1 94 115.1 130.4 14.4 10.7 34.8 7.7 45.6-6.7 10.7-14.4 7.7-34.8-6.7-45.6-41.4-30.8-73.9-67.6-96.8-109.4-23.4-42.7-35.2-88.3-35.2-135.6 0-97.4 51.7-189.3 141.8-252 14.8-10.3 18.4-30.6 8.1-45.3-6.4-9.2-16.5-14-26.8-14zM764.9 42.3c-9.3 0-18.6 4-25.1 11.7-11.5 13.8-9.6 34.4 4.2 45.9 81.2 67.5 127.8 165.6 127.8 269C871.8 475.2 823 575 738 642.7c-14.1 11.2-16.4 31.7-5.2 45.8 11.2 14.1 31.7 16.4 45.8 5.2C879.3 613.5 937 495.1 937 368.9c0-122.8-55.1-239.1-151.3-319.1-6.1-5-13.5-7.5-20.8-7.5zM752.5 787.7c-6.5 3.7-14 5.9-22 5.9H298.1c-25 0-45.3-20.3-45.3-45.3V571c0-25 20.3-45.3 45.3-45.3h428.1L581.7 650.3l170.8 137.4zM768.5 546.6c4.6 7.1 7.3 15.4 7.3 24.5V748.3c0 0.7-0.2 1.4-0.2 2.2l-126-101.3 118.9-102.6zM276.1-25.7c6.5-3.7 14-5.9 22-5.9h432.4c25 0 45.3 20.3 45.3 45.3V190.9c0 25-20.3 45.3-45.3 45.3H302.4l144.5-124.5-170.8-137.4zM260.1 215.4c-4.6-7.1-7.3-15.4-7.3-24.5v-177.3c0-0.7 0.2-1.4 0.2-2.2l126 101.3-118.9 102.7z"  horiz-adv-x="1024" />

    
    <glyph glyph-name="message-" unicode="&#58907;" d="M867.2 66.4c-6.1 10.6-9.3 22.6-9.4 34.8l-2.9 351.6c0 158-131.2 287.2-291.4 287.2H449c-160.3 0-291.4-129.3-291.4-287.2l2.9-357.8c0.1-12.5-3-24.9-9-35.9l-6.1-11.1c-26.1-47.9 9.1-106 64.3-106h603.9c55.9 0 91 59.4 63.5 107.3l-9.9 17.1zM778 44.7l-523.2 2.2 0.9 0.8c14.5 13.8 21.1 35.6 20.9 55.4l-0.2 347.1c0 98.3 69.1 185.7 168.8 185.7H572c99.7 0 159.8-94 159.8-192.2l3.8-339.9c0.2-21.9 17.6-40.1 35.1-53.6l7.3-5.5zM519.9 674.9h-16.7c-27 0-49.1 22.1-49.1 49.1v46.9c0 27 22.1 49.1 49.1 49.1h16.7c27 0 49.1-22.1 49.1-49.1V724c0-27-22.1-49.1-49.1-49.1z"  horiz-adv-x="1024" />

    
    <glyph glyph-name="school" unicode="&#58908;" d="M513.1 733.8c0.4 0 0.6-0.1 0.7-0.2l351-219c0.3-0.2 0.6-0.4 0.7-0.5 0-0.6-0.3-1.4-0.5-1.9H161.2c-0.3 0.5-0.5 1.3-0.5 1.9 0.2 0.1 0.4 0.3 0.7 0.5l351 219c0.1 0 0.3 0.2 0.7 0.2M513.1 797c-11.9 0-23.7-3.3-34.2-9.8l-351-219c-55-34.3-30.7-119.3 34.2-119.3h702.1c64.9 0 89.2 85 34.2 119.3l-351 219c-10.6 6.5-22.4 9.8-34.3 9.8zM722.2-42.8H297.8c-70.4 0-127.7 59.4-127.7 132.4V450c0 17.5 14.2 31.6 31.6 31.6s31.6-14.2 31.6-31.6v-360.3c0-38.1 28.9-69.2 64.4-69.2h424.5c35.5 0 64.4 31 64.4 69.2V450c0 17.5 14.2 31.6 31.6 31.6s31.6-14.2 31.6-31.6v-360.3c0.1-73.1-57.2-132.5-127.6-132.5zM349.4 34.5c-11.6 0-21.1 9.4-21.1 21.1V373.5c0 11.6 9.4 21.1 21.1 21.1s21.1-9.4 21.1-21.1v-317.9c0-11.7-9.5-21.1-21.1-21.1zM513.6 39.8c-11.6 0-21.1 9.4-21.1 21.1V378.8c0 11.6 9.4 21.1 21.1 21.1 11.6 0 21.1-9.4 21.1-21.1v-317.9c0-11.7-9.4-21.1-21.1-21.1zM677.9 37.1c-11.6 0-21.1 9.4-21.1 21.1v318c0 11.6 9.4 21.1 21.1 21.1s21.1-9.4 21.1-21.1v-317.9c-0.1-11.7-9.5-21.2-21.1-21.2z"  horiz-adv-x="1024" />

    
    <glyph glyph-name="class" unicode="&#58909;" d="M553.9-25.8H293.4c-107 0-194.1 88.1-194.1 196.4V623.2c0 108.3 87.1 196.4 194.1 196.4h439.2c107 0 194.1-88.1 194.1-196.4V421c0-17.5-14.2-31.7-31.7-31.7s-31.7 14.2-31.7 31.7V623.2c0 73.3-58.6 132.9-130.6 132.9H293.4c-72 0-130.6-59.6-130.6-132.9v-452.6c0-73.3 58.6-132.9 130.6-132.9h260.5c17.5 0 31.7-14.2 31.7-31.7 0-17.6-14.2-31.8-31.7-31.8zM892.1 554.2H143.5c-17.7 0-32 14.3-32 32s14.3 32 32 32h748.6c17.7 0 32-14.3 32-32s-14.3-32-32-32zM317.3 295.6c-27.1-7.4-55.7-14.3-77.4-20.2l-3.3 16.4c9.4 2.3 21.2 5.1 34.2 7.9v70.8h-28.6v15.6h28.6V452h-31.4v15.6h79.7V452h-32.4v-65.9H313v-15.6h-26.3v-67l28.9 7.4 1.7-15.3z m52.9 82.9c0-51.4-6.4-94.6-55-125-2.3 3.3-7.2 9.2-10.7 12 44.7 27.6 50.4 67 50.4 113V486.6h15.3v-108.1z m-57.7-27.7c10.2 18.4 11.5 51.4 11.8 83.6l13.8-1.5c-0.5-34-1.8-69.5-13.5-90.7l-12.1 8.6z m158.7-72V263h-103v15.8h46.3v81h-29.4v15.6h29.4v77.7h-34.2v15.6h85.1v-15.6h-34.8v-77.7h30.7v-15.6h-30.7v-81h40.6zM315.3 242.8c-3.4 0-6.7 1.6-8.8 4.6-2.1 3-6.2 7.9-8.5 9.7-2.7 2.2-4.3 5.5-4.1 9s2.1 6.6 5 8.5c4.2 2.6 8.1 5.4 11.7 8.3-11.9-3.2-23.9-6.2-35.6-9.2-11.7-3-22.8-5.8-32.4-8.4-2.8-0.8-5.9-0.3-8.4 1.2s-4.3 4.1-4.8 7l-3.3 16.4c-1.1 5.6 2.4 11.1 7.9 12.5 7.1 1.7 16.1 3.9 26.1 6.1v51.6h-18c-5.9 0-10.7 4.8-10.7 10.7v15.6c0 5.9 4.8 10.7 10.7 10.7h18v44.6h-20.8c-5.9 0-10.7 4.8-10.7 10.7V468c0 5.9 4.8 10.7 10.7 10.7H319c5.9 0 10.7-4.8 10.7-10.7v-15.6c0-2.8-1.1-5.3-2.8-7.2l12.3-1.4c1.9-0.2 3.6-0.9 5-1.9v45c0 5.9 4.8 10.7 10.7 10.7h15.3c5.9 0 10.7-4.8 10.7-10.7v-7.2h84.4c5.9 0 10.7-4.8 10.7-10.7v-15.6c0-5.9-4.8-10.7-10.7-10.7h-24.1V386h20c5.9 0 10.7-4.8 10.7-10.7v-15.6c0-5.9-4.8-10.7-10.7-10.7h-20v-59.7h30c5.9 0 10.7-4.8 10.7-10.7v-15.8c0-5.9-4.8-10.7-10.7-10.7h-103c-5.9 0-10.7 4.8-10.7 10.7v15.4c-8.7-12.4-20.5-23.8-36.6-33.9-1.7-1-3.7-1.5-5.6-1.5z m64.8 107.6c-1.5-21.4-5.6-42.6-16.2-61.9 1.3 0.6 2.8 0.9 4.3 0.9h35.6v59.7h-18.7c-1.8 0-3.5 0.5-5 1.3z m-64.6-28.8c2.1 0 4.2-0.6 6-1.9 2.5-1.7 4.2-4.5 4.6-7.5l1.3-11.3c3.7 5.5 6.7 11.4 9.1 17.8 5.7 15.5 7.3 32.8 7.7 49.8-2.2-11.9-5.4-22.6-10.4-31.5-1.5-2.7-4-4.6-7-5.2-3-0.7-6.1 0-8.6 1.8l-12 8.7c-4.4 3.2-5.7 9.1-3.1 13.8 0.7 1.2 1.3 2.5 1.9 3.9h-7.7v-42.6l15.6 4c0.9 0.1 1.7 0.2 2.6 0.2z m106.2 46l0.8-0.8c0.2 0.3 0.5 0.6 0.8 0.8l-0.8 0.8c-0.2-0.3-0.5-0.5-0.8-0.8z m-143.6 10.7c0.2-0.2 0.5-0.4 0.7-0.7 0.2 0.2 0.4 0.5 0.7 0.7-0.2 0.2-0.5 0.4-0.7 0.7-0.3-0.2-0.5-0.5-0.7-0.7z m102.8 64.1v-57.2c1.3 0.5 2.7 0.8 4.2 0.8h18.7v56.4h-22.9z m-83.6-45.6h14.9c0.9 11.8 1.2 24.8 1.3 37.7 0 2.6 1 5 2.6 6.9h-18.9v-44.6zM731.7 157.8c-61.1 0-110.8 50.7-110.8 113s49.7 113 110.8 113 110.8-50.7 110.8-113-49.7-113-110.8-113z m0 183.8c-37.9 0-68.7-31.8-68.7-70.9 0-39.1 30.8-70.9 68.7-70.9s68.7 31.8 68.7 70.9c0 39.1-30.8 70.9-68.7 70.9zM900.1-11.4c-11.6 0-21.1 9.4-21.1 21.1v40c0 24.8-10.3 48.2-29 65.9-19 18-44.1 28-70.9 28h-95c-26.7 0-51.9-9.9-70.9-28-18.7-17.8-29-41.2-29-65.9v-40c0-11.6-9.4-21.1-21.1-21.1S542-2 542 9.7v40c0 75 63.7 136 142 136h95c78.3 0 142-61 142-136v-40c0.2-11.7-9.3-21.1-20.9-21.1zM392.1 653c-14.1 0-25.6 11.5-25.6 25.6V778c0 14.1 11.5 25.6 25.6 25.6s25.6-11.5 25.6-25.6v-99.5c0-14.1-11.4-25.5-25.6-25.5zM667.4 653c-14.1 0-25.6 11.5-25.6 25.6V778c0 14.1 11.5 25.6 25.6 25.6S693 792.1 693 778v-99.5c0-14.1-11.4-25.5-25.6-25.5z"  horiz-adv-x="1024" />

    
    <glyph glyph-name="student" unicode="&#58910;" d="M512.7 331.8c-59.1 0-114.6 23.5-156.3 66.3-41.5 42.5-64.4 99-64.4 159.1s22.9 116.5 64.4 159.1c41.7 42.7 97.2 66.3 156.3 66.3 59.1 0 114.6-23.5 156.3-66.3 41.5-42.5 64.4-99 64.4-159.1S710.5 440.6 669 398.1c-41.7-42.7-97.2-66.3-156.3-66.3z m0 389c-87.7 0-159-73.4-159-163.6 0-90.2 71.3-163.6 159-163.6s159 73.4 159 163.6c0 90.2-71.3 163.6-159 163.6zM869-26.1c-17 0-30.8 13.8-30.8 30.8v84.6c0 56.2-23.3 109.2-65.6 149.4-42.7 40.6-99.3 63-159.4 63h-201c-60.1 0-116.7-22.4-159.4-63-42.3-40.2-65.6-93.3-65.6-149.4v-84.6c0-17-13.8-30.8-30.8-30.8s-30.8 13.8-30.8 30.8v84.6c0 37.1 7.7 73.1 22.9 107 14.6 32.6 35.4 61.9 61.9 87.1 54.2 51.6 125.9 79.9 201.9 79.9h201c76 0 147.7-28.4 201.9-79.9 26.5-25.2 47.3-54.5 61.9-87.1 15.2-34 22.9-70 22.9-107v-84.6c-0.2-17-14-30.8-31-30.8zM365.4 561.4c-14.3 0-24.3 0.5-27.2 1.1-11.1 2.2-18.4 13.1-16.1 24.2 2.2 10.8 12.4 17.9 23.2 16.3 5.1-0.4 46.9-1.9 93.3 3.8 73.1 9 96.6 27.7 104.1 38 3.6 4.9 9.1 8 15.1 8.4 6 0.4 12-1.8 16.2-6.2 0 0 11.2-11.2 29.5-20.2 23.3-11.5 47-14.5 70.5-8.8 11 2.7 22.1-4.1 24.8-15.2 2.7-11-4.1-22.1-15.2-24.8-11.5-2.8-22.5-3.9-32.9-3.9-40.3 0-72.1 17.7-90.1 30.8-24.5-19.6-64.9-32.8-120.6-39.3-27.6-3.2-55.1-4.2-74.6-4.2z m-20 41.6c0.3 0 0.5-0.1 0.8-0.1-0.2 0-0.4 0-0.8 0.1z"  horiz-adv-x="1024" />

    
    <glyph glyph-name="grade" unicode="&#58911;" d="M513.8 335c-25.1 0-49.4 6.4-72.2 19.1-21.2 11.8-40.1 28.6-56.2 49.8-31.8 41.9-49.2 97.1-49.2 155.5s17.5 113.6 49.2 155.5c16.1 21.2 35 38 56.2 49.8 22.7 12.7 47 19.1 72.2 19.1 25.1 0 49.4-6.4 72.2-19.1 21.2-11.8 40.1-28.6 56.2-49.8 31.8-41.9 49.2-97.1 49.2-155.5s-17.5-113.6-49.2-155.5c-16.1-21.2-35-38-56.2-49.8-22.8-12.7-47.1-19.1-72.2-19.1z m0 387.1c-29.3 0-57.3-15.8-79.1-44.4C411 646.5 398 604.5 398 559.5s13-87 36.7-118.2c21.7-28.7 49.8-44.4 79.1-44.4s57.3 15.8 79.1 44.4c23.7 31.2 36.7 73.2 36.7 118.2s-13 87-36.7 118.2c-21.8 28.6-49.9 44.4-79.1 44.4zM789-21.2c-17.1 0-30.9 13.9-30.9 30.9v84.2c0 57.3-18.1 111-51.1 151.4-31.5 38.5-72.5 59.7-115.6 59.7H436.1c-43.1 0-84.2-21.2-115.6-59.7-32.9-40.3-51.1-94.1-51.1-151.4v-84.2c0-17.1-13.9-30.9-30.9-30.9s-30.9 13.9-30.9 30.9v84.2c0 150.5 102.5 273 228.6 273h155.2c126 0 228.6-122.5 228.6-273v-84.2c0-17.1-13.9-30.9-31-30.9zM399.8 553.2c-12 0-21.3 0.6-25.4 1.7-16.5 4.3-26.5 21.1-22.2 37.7 4 15.6 19.2 25.3 34.7 22.9 5.7-0.5 35.9-1.3 68.5 4 35.2 5.8 59.9 16.9 67.5 30.5 5.2 9.1 14.5 15.2 25 15.9 10.5 0.6 20.4-3.9 26.6-12.3 0.8-1 8.2-10 19.7-17.2 13.4-8.4 26.1-10.5 38.9-6.6 16.3 5.1 33.7-4.1 38.7-20.4 5.1-16.3-4.1-33.7-20.4-38.7-31-9.6-62.9-4.5-92.3 14.7-2.7 1.8-5.3 3.6-7.7 5.4-21.3-16.2-51.7-27.3-90.7-33.2-21.1-3.1-43.7-4.4-60.9-4.4z m-10 61.6z m0 0zM698.8 363.3c-6.2 0-12.3 2.8-16.4 8-7 9.1-5.4 22.1 3.7 29.1 42 32.6 68.2 96 68.2 165.5 0 16.9-1.5 33.7-4.6 49.8-2.1 11.3 5.3 22.1 16.5 24.2 11.3 2.1 22.1-5.3 24.2-16.5 3.5-18.7 5.3-38 5.3-57.5 0-40.6-7.9-80.5-22.7-115.3-14.8-34.5-36-63.2-61.5-83-3.8-2.9-8.2-4.3-12.7-4.3zM897.4-18.8c-11.5 0-20.8 9.3-20.8 20.8v97.5c0 70.4-19.3 136.5-54.3 186.1-33.4 47.5-77 73.6-122.6 73.6-11.5 0-20.8 9.3-20.8 20.8s9.3 20.8 20.8 20.8c30.4 0 59.8-8.4 87.5-25.1 26-15.7 49.2-37.9 69.1-66.1 39.9-56.6 61.8-131.2 61.8-210v-97.5c0-11.6-9.3-20.9-20.7-20.9zM329.2 363.3c-4.4 0-8.9 1.4-12.7 4.4-25.4 19.7-46.7 48.4-61.5 83-14.9 34.8-22.7 74.6-22.7 115.3 0 19.5 1.8 38.9 5.3 57.5 2.1 11.3 13 18.7 24.2 16.5 11.3-2.1 18.7-13 16.5-24.2-3.1-16.2-4.6-32.9-4.6-49.8 0-69.4 26.1-132.8 68.2-165.5 9.1-7 10.7-20.1 3.7-29.1-4-5.3-10.2-8.1-16.4-8.1zM130.7-18.8c-11.5 0-20.8 9.3-20.8 20.8v97.5c0 78.8 22 153.4 61.8 210 19.9 28.2 43.1 50.4 69.1 66.1 27.6 16.7 57.1 25.1 87.5 25.1 11.5 0 20.8-9.3 20.8-20.8s-9.3-20.8-20.8-20.8c-45.6 0-89.2-26.1-122.6-73.6-35-49.7-54.3-115.8-54.3-186.1v-97.5c0.1-11.4-9.2-20.7-20.7-20.7z"  horiz-adv-x="1024" />

    
    <glyph glyph-name="guardianshipobject" unicode="&#58912;" d="M530.9 341.5c-58.8 0-114 23.4-155.5 65.9-41.3 42.3-64 98.5-64 158.2s22.7 115.9 64 158.2c41.5 42.5 96.7 65.9 155.5 65.9s114-23.4 155.5-65.9c41.3-42.3 64-98.5 64-158.2s-22.7-115.9-64-158.2c-41.6-42.5-96.8-65.9-155.5-65.9z m0 386.8c-87.2 0-158.1-73-158.1-162.7s70.9-162.7 158.1-162.7c87.2 0 158.1 73 158.1 162.7s-70.9 162.7-158.1 162.7zM883.5-21.5c-16.9 0-30.7 13.7-30.7 30.7v86.2c0 57.6-23.3 111.9-65.5 153-42.4 41.3-98.7 64.1-158.3 64.1-16.9 0-30.7 13.7-30.7 30.7s13.7 30.7 30.7 30.7c75.7 0 147.1-28.9 201.1-81.5 26.3-25.6 46.9-55.4 61.4-88.5 15-34.4 22.6-70.9 22.6-108.5v-86.2c0.1-17-13.6-30.7-30.6-30.7zM174.8-21.5c-16.9 0-30.7 13.7-30.7 30.7v86.2c0 37.5 7.6 74 22.6 108.5 14.5 33.1 35.1 62.9 61.4 88.5 54 52.5 125.4 81.5 201.1 81.5 16.9 0 30.7-13.7 30.7-30.7s-13.7-30.7-30.7-30.7c-59.6 0-115.9-22.8-158.3-64.1-42.2-41.1-65.5-95.4-65.5-153v-86.2c0.1-17-13.7-30.7-30.6-30.7z"  horiz-adv-x="1024" />

    
    <glyph glyph-name="alarmlog" unicode="&#58913;" d="M700.6-59.7H345.8c-77.3 0-140.1 62.9-140.1 140.1V686.2c0 77.3 62.9 140.1 140.1 140.1h354.9c77.3 0 140.1-62.9 140.1-140.1v-605.8c0-77.3-62.9-140.1-140.2-140.1zM345.8 770.8c-46.7 0-84.6-38-84.6-84.6v-605.8c0-46.7 38-84.6 84.6-84.6h354.9c46.7 0 84.6 38 84.6 84.6V686.2c0 46.7-38 84.6-84.6 84.6H345.8zM715.7 607.7h-306c-11.3 0-20.4 9.1-20.4 20.4s9.1 20.4 20.4 20.4h306c11.3 0 20.4-9.1 20.4-20.4s-9.1-20.4-20.4-20.4zM332.8 607.7h-2.1c-11.3 0-20.4 9.1-20.4 20.4s9.1 20.4 20.4 20.4h2.1c11.3 0 20.4-9.1 20.4-20.4s-9.2-20.4-20.4-20.4zM715.7 504.8h-306c-11.3 0-20.4 9.1-20.4 20.4s9.1 20.4 20.4 20.4h306c11.3 0 20.4-9.1 20.4-20.4s-9.1-20.4-20.4-20.4zM332.8 504.8h-2.1c-11.3 0-20.4 9.1-20.4 20.4s9.1 20.4 20.4 20.4h2.1c11.3 0 20.4-9.1 20.4-20.4s-9.2-20.4-20.4-20.4z"  horiz-adv-x="1024" />

    
    <glyph glyph-name="familychat" unicode="&#58914;" d="M500.9 735.9c48.1 0 94.5-7.3 138.2-21.6 41.4-13.6 78.3-32.9 109.8-57.4 60.7-47.2 94.2-108.5 94.2-172.6s-33.4-125.4-94.2-172.6c-31.5-24.5-68.4-43.8-109.8-57.4-43.6-14.4-90.1-21.6-138.2-21.6-40.8 0-82.7-13.5-123.2-26.5-28.5-9.2-58-18.7-78-19.9-0.1 0.4-0.2 0.9-0.4 1.3-2.3 8.3-4.5 18.1-6.7 28.5-8.2 37.6-16.7 76.5-46.7 101.4-28.1 23.2-49.9 49.5-64.9 78.2-14.8 28.4-22.3 58.3-22.3 88.8 0 64.1 33.4 125.4 94.2 172.6 31.5 24.5 68.4 43.8 109.8 57.4 43.7 14.2 90.2 21.4 138.2 21.4m0 65.1C276 801 93.7 659.2 93.7 484.3c0-84 42.1-160.5 110.8-217.2 27.8-22.9 22.8-124.4 58.3-140.1 9.7-4.3 20.7-6.1 32.6-6.1 60.5 0 144.4 46.6 205.5 46.6 224.9 0 407.2 141.8 407.2 316.7S725.8 801 500.9 801zM760.3 24.7c-25.7 0-53 8.8-79.6 17.4-21.9 7.1-44.5 14.3-60.3 14.3-51.4 0-110.1 18.9-140.5 30.2-20.5 7.6-39.7 16-54.2 23.8-17.6 9.4-36.5 21.2-37.6 42.5l65 3.3c-0.5 10-5.8 16.6-7.7 18.3 5.1-4.3 30.5-17.8 69-31.1 40.4-14 79.1-22 106.1-22 25.9 0 53.5-8.9 80.2-17.5 21.9-7 51.1-16.5 65.2-13.9 2.9 6.5 5.9 20.4 7.8 29.3 5.1 23.7 10.5 48.1 27.8 62.4 41 33.8 63.6 77.4 63.6 122.7 0 4.9-4.1 19.9-15 39.3-11.2 19.9-21.5 30.1-24.7 31.9l31.9 56.7c22.5-12.7 40.7-41 49.6-56.8 8.7-15.5 23.3-45.3 23.3-71.2 0-64.4-30.3-125.2-85.5-171.4-2.5-5.1-5.5-19-7.4-27.5-6.3-28.8-13.4-61.4-41.6-73.9-11.3-4.8-23.2-6.8-35.4-6.8zM301 461.2m-36 0a36 36 0 1 1 72 0 36 36 0 1 1-72 0ZM473 461.2m-36 0a36 36 0 1 1 72 0 36 36 0 1 1-72 0ZM645.1 459.4m-36 0a36 36 0 1 1 72 0 36 36 0 1 1-72 0Z"  horiz-adv-x="1024" />

    
    <glyph glyph-name="aboutus" unicode="&#58915;" d="M511.2-54.7c-59.2 0-116.7 11.6-170.8 34.5-52.3 22.1-99.2 53.7-139.5 94s-71.9 87.2-94 139.5C84 267.4 72.4 324.9 72.4 384.1S84 500.8 106.9 555c22.1 52.3 53.7 99.2 94 139.5s87.2 71.9 139.5 94C394.5 811.4 452 823 511.2 823S628 811.4 682.1 788.5c52.3-22.1 99.2-53.7 139.5-94s71.9-87.2 94-139.5c22.9-54.1 34.5-111.6 34.5-170.8s-11.6-116.7-34.5-170.8c-22.1-52.3-53.7-99.2-94-139.5s-87.2-71.9-139.5-94c-54.1-23-111.6-34.6-170.9-34.6z m0 816.6c-100.9 0-195.8-39.3-267.1-110.6-71.3-71.4-110.6-166.3-110.6-267.2 0-100.9 39.3-195.8 110.6-267.1 71.4-71.4 166.2-110.6 267.1-110.6 100.9 0 195.8 39.3 267.1 110.6S889 283.2 889 384.1c0 100.9-39.3 195.8-110.6 267.1-71.4 71.4-166.2 110.7-267.2 110.7zM509.1 228.5c-19.4 0-41.7 5.6-66.3 16.8-18.2 8.2-31.1 16.6-31.6 16.9-9.4 6.1-12.1 18.8-5.9 28.2 6.1 9.4 18.7 12.1 28.2 6 11.9-7.7 48.9-27.6 76.7-27.1 28.7 0.5 67.1 20 79.5 27.5 9.6 5.8 22.1 2.7 28-6.9 5.8-9.6 2.7-22.1-6.9-28-2.2-1.3-54.5-32.5-99.9-33.3-0.6-0.1-1.2-0.1-1.8-0.1zM355.3 412.3s-0.1 0 0 0c-11.3 0-20.4 9.2-20.4 20.4l0.2 69.6c0 11.2 9.1 20.3 20.4 20.3h0.1c11.2 0 20.3-9.2 20.3-20.4l-0.2-69.6c-0.1-11.2-9.2-20.3-20.4-20.3zM606.5 455.9c-6.4 0-12.7 3-16.6 8.6-6.5 9.2-4.3 21.9 4.8 28.4l60.7 43.1c9.2 6.5 21.9 4.3 28.4-4.8 6.5-9.2 4.3-21.9-4.8-28.4l-60.7-43.1c-3.6-2.6-7.7-3.8-11.8-3.8zM664 410.6c-4.3 0-8.7 1.4-12.4 4.2l-58.4 45c-8.9 6.9-10.6 19.6-3.7 28.6 6.9 8.9 19.6 10.6 28.6 3.7l58.4-45c8.9-6.9 10.6-19.6 3.7-28.6-4.1-5.1-10.1-7.9-16.2-7.9z"  horiz-adv-x="1024" />

    
    <glyph glyph-name="report" unicode="&#58917;" d="M762.1 439.8H260c-11.3 0-20.5 9.2-20.5 20.5s9.2 20.5 20.5 20.5h502.1c11.3 0 20.5-9.2 20.5-20.5s-9.2-20.5-20.5-20.5zM644.1 287.3H378c-11.3 0-20.5 9.2-20.5 20.5s9.2 20.5 20.5 20.5h266.2c11.3 0 20.5-9.2 20.5-20.5s-9.2-20.5-20.6-20.5zM762.1 134.9H260c-11.3 0-20.5 9.2-20.5 20.5s9.2 20.5 20.5 20.5h502.1c11.3 0 20.5-9.2 20.5-20.5s-9.2-20.5-20.5-20.5zM828.8-28.2h-631c-51.6 0-93.5 43.2-93.5 96.3V611.2c0 54.3 42.9 98.5 95.7 98.5h159.6c17 0 30.7-13.8 30.7-30.7s-13.8-30.7-30.7-30.7H200c-18.9 0-34.2-16.6-34.2-37.1V68c0-19.2 14.4-34.8 32-34.8h631c17.7 0 32 15.6 32 34.8V613.5c0 19.2-14.4 34.8-32 34.8H685.5c-17 0-30.7 13.8-30.7 30.7s13.8 30.7 30.7 30.7h143.3c51.6 0 93.5-43.2 93.5-96.3V68c0-53-41.9-96.2-93.5-96.2zM663.8 686.8v-19.6c-6-16.5-12.9-17.4-36.7-17.4H399.9c-8.8 0-16.2 2.6-22.2 17.4v19.6c0 15.9 13.2 28.8 29.4 28.8h64.1c11.9 0 21.6 9.5 21.6 21.1v13.6c0 15 12.6 27.4 27.9 27.4 15.3 0 27.8-12.2 27.8-27.2V735c0-10.7 8.9-19.4 19.8-19.4h65.9c16.4 0 29.6-12.9 29.6-28.8zM627.1 631.2H399.9c-18.6 0-31.5 9.5-39.4 29-0.9 2.2-1.3 4.6-1.3 6.9v19.6c0 26.1 21.5 47.4 48 47.4h64.1c1.7 0 3 1.2 3 2.6v13.6c0 25.3 20.9 45.9 46.5 45.9 25.5 0 46.3-20.5 46.3-45.7V735c0-0.4 0.5-0.9 1.3-0.9h65.9c26.5 0 48-21.3 48-47.4v-19.6c0-2.2-0.4-4.3-1.1-6.3-10.7-29.6-31.8-29.6-54.1-29.6z m36.7 35.9zM398 668.4c0.3 0 0.9-0.1 1.9-0.1h227.2c4.7 0 14.3 0 17.4 0.9 0.2 0.3 0.4 0.8 0.8 1.5v16.1c0 5.7-4.9 10.3-10.9 10.3h-65.9c-21.2 0-38.4 17-38.4 38v15.5c0 4.7-4.1 8.6-9.2 8.6s-9.4-4-9.4-8.8v-13.6c0-21.9-18-39.7-40.1-39.7h-64.1c-6 0-10.9-4.6-10.9-10.3v-15.7c0.7-1.6 1.3-2.4 1.6-2.7z"  horiz-adv-x="1024" />

    
    <glyph glyph-name="trajectorypath" unicode="&#58918;" d="M509.5 178.1c-7 0-14 2.3-19.7 6.9-2.4 1.9-59.5 47.8-117.5 110.8C291.2 383.9 250 460.2 250 522.3c0 71.4 27.8 138.6 78.3 189.1s117.6 78.3 189.1 78.3 138.6-27.8 189.1-78.3 78.3-117.6 78.3-189.1c0-62.6-44.1-139.1-130.9-227.3-62-62.8-122.9-108.7-125.5-110.6-5.6-4.2-12.3-6.3-18.9-6.3z m7.9 548.6c-112.7 0-204.3-91.7-204.3-204.3 0-44.6 37.5-109.8 105.6-183.8 35.2-38.2 70.5-70.1 91.5-88.2 22.4 18.1 61.1 50.7 99.3 89.5 33.7 34.3 60.5 66.7 79.4 96.1 21.8 33.9 32.9 62.9 32.9 86.4-0.1 112.6-91.8 204.3-204.4 204.3zM517.4 374.8c-81.4 0-147.6 66.2-147.6 147.6S436 669.9 517.4 669.9 665 603.7 665 522.3s-66.3-147.5-147.6-147.5z m0 232c-46.6 0-84.5-37.9-84.5-84.5s37.9-84.5 84.5-84.5 84.5 37.9 84.5 84.5-37.9 84.5-84.5 84.5zM784.2 86.2h-523c-50.7 0-91.9 40.8-91.9 91s41.2 91 91.9 91c17.4 0 31.5-14.1 31.5-31.5s-14.1-31.5-31.5-31.5c-15.9 0-28.8-12.5-28.8-27.9s12.9-27.9 28.8-27.9h523c17.4 0 31.5-14.1 31.5-31.5s-14.1-31.7-31.5-31.7zM773.7-24.8h-0.8l-220.4 1.9c-17.4 0.1-31.4 14.4-31.3 31.8 0.1 17.3 14.2 31.3 31.5 31.3h0.3l220.4-1.9h0.3c15.8 0 28.6 10.8 28.8 24.1 0.1 8.2-4.6 13.8-7.4 16.4-5.5 5.2-13 8.1-21.2 8.2-17.4 0.1-31.4 14.4-31.3 31.8 0.1 17.3 14.2 31.3 31.5 31.3h0.3c24.1-0.2 46.8-9.2 63.9-25.3 17.8-16.7 27.5-39.1 27.2-62.9-0.4-48-41.5-86.7-91.8-86.7z"  horiz-adv-x="1024" />

    
    <glyph glyph-name="electronicfence" unicode="&#58919;" d="M506.9 30.6c-48.2 0-95.1 9.5-139.2 28.1-42.6 18-80.8 43.8-113.6 76.6s-58.6 71-76.6 113.6c-18.6 44.1-28.1 90.9-28.1 139.2s9.5 95.1 28.1 139.2c18 42.6 43.8 80.8 76.6 113.6s71 58.6 113.6 76.6c44.1 18.6 90.9 28.1 139.2 28.1 48.2 0 95.1-9.5 139.2-28.1 42.6-18 80.8-43.8 113.6-76.6s58.6-71 76.6-113.6c18.6-44.1 28.1-90.9 28.1-139.2s-9.5-95.1-28.1-139.2c-18-42.6-43.8-80.8-76.6-113.6s-71-58.6-113.6-76.6c-44.2-18.6-91-28.1-139.2-28.1z m0 651.5c-78.5 0-152.3-30.6-207.9-86.1s-86.1-129.3-86.1-207.9c0-78.5 30.6-152.3 86.1-207.9 55.5-55.5 129.3-86.1 207.9-86.1s152.3 30.6 207.9 86.1c55.5 55.5 86.1 129.4 86.1 207.9S770.3 540.4 714.8 596c-55.6 55.5-129.4 86.1-207.9 86.1zM506.9 157.4c-61.6 0-119.6 24-163.1 67.6-43.6 43.6-67.6 101.5-67.6 163.1s24 119.6 67.6 163.1 101.5 67.6 163.1 67.6 119.6-24 163.1-67.6 67.6-101.5 67.6-163.1-24-119.5-67.6-163.1c-43.6-43.6-101.5-67.6-163.1-67.6z m0 419.1c-103.9 0-188.4-84.5-188.4-188.4S403 199.7 506.9 199.7s188.4 84.5 188.4 188.4-84.6 188.4-188.4 188.4zM918.1 398H659.9c-5.9 0-10.8 4.8-10.8 10.8s4.8 10.8 10.8 10.8H918c5.9 0 10.8-4.8 10.8-10.8S924 398 918.1 398zM367.2 398H109.1c-5.9 0-10.8 4.8-10.8 10.8s4.8 10.8 10.8 10.8h258.1c5.9 0 10.8-4.8 10.8-10.8s-4.8-10.8-10.8-10.8zM109.1 396.4c-5.8 0-10.6 4.7-10.6 10.5s4.7 10.6 10.5 10.6l258.1 1.1c5.8 0 10.6-4.7 10.6-10.5s-4.7-10.6-10.5-10.6l-258.1-1.1zM515.9 519c-5.8 0-10.6 4.7-10.6 10.5l-1.1 258.1c0 5.8 4.7 10.6 10.5 10.6s10.6-4.7 10.6-10.5l1.1-258.1c0.1-5.8-4.6-10.6-10.5-10.6 0.1 0 0 0 0 0zM518.4-30.5c-5.8 0-10.6 4.7-10.6 10.5l-1.1 258.1c0 5.8 4.7 10.6 10.5 10.6 5.9 0 10.6-4.7 10.6-10.5l1.1-258.1c0.1-5.8-4.6-10.5-10.5-10.6z"  horiz-adv-x="1024" />

    
    <glyph glyph-name="location" unicode="&#58920;" d="M506.4-56.5c-7.2 0-14.3 2.4-20.2 7.1-3.5 2.8-87.1 70-172 162.2-117.4 127.5-177 236.9-177 325.1 0 51.4 10.1 101.3 29.9 148.3 19.2 45.4 46.6 86.1 81.6 121.1s75.7 62.4 121.1 81.6c47 19.9 96.9 29.9 148.3 29.9s101.3-10.1 148.3-29.9c45.4-19.2 86.1-46.6 121.1-81.6 35-35 62.4-75.7 81.6-121.1 19.9-47 29.9-96.9 29.9-148.3 0-88.6-63.7-198.3-189.4-325.9-90.7-92.1-180-159.3-183.8-162.1-5.8-4.2-12.6-6.4-19.4-6.4zM518 754.2c-84.5 0-163.9-32.9-223.6-92.6-59.7-59.7-92.6-139.2-92.6-223.6 0-70.5 55.3-167.8 159.9-281.4 57.8-62.8 116-114.3 145.4-139.3 31.2 24.8 94.5 77.1 157 140.6 50.6 51.5 90.8 100 119.4 144.4 33.8 52.5 50.9 98.1 50.9 135.6 0 84.5-32.9 163.9-92.6 223.6-59.9 59.8-139.3 92.7-223.8 92.7zM518 234.2c-112.4 0-203.8 91.4-203.8 203.8S405.6 641.7 518 641.7s203.8-91.4 203.8-203.8S630.4 234.2 518 234.2z m0 342.9c-76.7 0-139.2-62.4-139.2-139.2 0-76.7 62.4-139.2 139.2-139.2 76.7 0 139.2 62.4 139.2 139.2 0 76.8-62.5 139.2-139.2 139.2z"  horiz-adv-x="1024" />

    
    <glyph glyph-name="devicelog" unicode="&#58921;" d="M710.5-65.9h-353c-80.7 0-146.3 65.6-146.3 146.3V683c0 80.7 65.6 146.3 146.3 146.3h353c80.7 0 146.3-65.6 146.3-146.3v-602.6c0-80.6-65.7-146.3-146.3-146.3z m-353 826.1c-42.6 0-77.3-34.7-77.3-77.3v-602.6c0-42.6 34.7-77.3 77.3-77.3h353c42.6 0 77.3 34.7 77.3 77.3V683c0 42.6-34.7 77.3-77.3 77.3h-353zM715.4 588.6H411c-12.7 0-23 10.3-23 23s10.3 23 23 23h304.4c12.7 0 23-10.3 23-23s-10.3-23-23-23zM715.4 378.1H411c-12.7 0-23 10.3-23 23s10.3 23 23 23h304.4c12.7 0 23-10.3 23-23s-10.3-23-23-23zM715.4 190.4H411c-12.7 0-23 10.3-23 23s10.3 23 23 23h304.4c12.7 0 23-10.3 23-23s-10.3-23-23-23zM321.2 590.7H189.3c-19.1 0-34.5 15.5-34.5 34.5s15.5 34.5 34.5 34.5h131.9c19.1 0 34.5-15.5 34.5-34.5s-15.5-34.5-34.5-34.5zM862.3 590.4h-0.5l-19.6 0.3c-19.1 0.3-34.3 15.9-34 35 0.3 18.9 15.7 34 34.5 34h0.5l19.6-0.3c19.1-0.3 34.3-15.9 34-35-0.3-18.9-15.7-34-34.5-34zM863 123.1h-0.5l-19.6 0.3c-19.1 0.3-34.3 15.9-34 35 0.3 19.1 15.9 34.3 35 34l19.6-0.3c19.1-0.3 34.3-15.9 34-35-0.3-18.9-15.7-34-34.5-34zM321.2 123.1H189.3c-19.1 0-34.5 15.5-34.5 34.5s15.5 34.5 34.5 34.5h131.9c19.1 0 34.5-15.5 34.5-34.5s-15.5-34.5-34.5-34.5z"  horiz-adv-x="1024" />

    
    <glyph glyph-name="healthremark" unicode="&#58923;" d="M530-54.6h-1.1c-11.8 0.4-22.5 7.3-27.7 17.9L467 33.1H348.3c-74.8 0-135.6 60.8-135.6 135.6V689.4c0 74.8 60.8 135.6 135.6 135.6h355.1C778.2 825 839 764.2 839 689.4v-520.7c0-74.8-60.8-135.6-135.6-135.6H599l-41.3-71.7c-5.7-10-16.3-16-27.7-16zM348.3 761.1c-39.5 0-71.6-32.1-71.6-71.6v-520.7c0-39.5 32.1-71.6 71.6-71.6H487c12.2 0 23.4-6.9 28.7-17.9l16.5-33.7 20.5 35.6c5.7 9.9 16.3 16 27.7 16h122.9c39.5 0 71.6 32.1 71.6 71.6V689.4c0 39.5-32.1 71.6-71.6 71.6h-355zM674.3 592H377.4c-12.4 0-22.4 10-22.4 22.4s10 22.4 22.4 22.4h296.9c12.4 0 22.4-10 22.4-22.4s-10-22.4-22.4-22.4zM674.3 386.6H377.4c-12.4 0-22.4 10-22.4 22.4s10 22.4 22.4 22.4h296.9c12.4 0 22.4-10 22.4-22.4s-10-22.4-22.4-22.4zM674.3 203.5H377.4c-12.4 0-22.4 10-22.4 22.4s10 22.4 22.4 22.4h296.9c12.4 0 22.4-10 22.4-22.4s-10-22.4-22.4-22.4z"  horiz-adv-x="1024" />

    
    <glyph glyph-name="contacts" unicode="&#58924;" d="M451.5 334.4c-57 0-110.4 24.3-150.4 68.4-39.1 43.3-60.7 100.5-60.7 161.2s21.6 118 60.7 161.2c40 44.1 93.4 68.4 150.4 68.4s110.4-24.3 150.4-68.4C641 682 662.5 624.7 662.5 564s-21.6-118-60.7-161.2c-39.9-44.1-93.3-68.4-150.3-68.4z m0 393.1c-79.9 0-144.9-73.4-144.9-163.5s65-163.5 144.9-163.5S596.4 473.9 596.4 564s-65 163.5-144.9 163.5zM785.6-27.4c-18.3 0-33.1 14.8-33.1 33.1v85.5c0 56.7-21.7 110.2-61.1 150.6-39.2 40.1-90.9 62.2-145.7 62.2H357.3c-54.8 0-106.6-22.1-145.7-62.2-39.4-40.4-61.1-93.8-61.1-150.6v-85.5c0-18.3-14.8-33.1-33.1-33.1s-33.1 14.8-33.1 33.1v85.5c0 74.1 28.4 143.9 79.9 196.7 25.1 25.7 54.3 45.9 86.7 60 33.8 14.7 69.5 22.1 106.3 22.1h188.4c36.8 0 72.6-7.5 106.3-22.1 32.5-14.1 61.7-34.3 86.7-60 51.5-52.8 79.9-122.6 79.9-196.7v-85.5c0.1-18.3-14.7-33.1-32.9-33.1zM676 363.8c-7.2 0-14.3 3.5-18.5 10-6.6 10.2-3.7 23.9 6.5 30.5 50.8 33 82.4 96.7 82.4 166.2 0 16.9-1.8 33.6-5.5 49.7-2.7 11.9 4.8 23.7 16.6 26.4 11.9 2.7 23.7-4.8 26.4-16.6 4.4-19.3 6.6-39.3 6.6-59.4 0-84.3-39.3-162.1-102.5-203.2-3.7-2.4-7.8-3.6-12-3.6zM917 41.8c-12.2 0-22 9.9-22 22v33c0 70.6-23.2 137-65.3 187-41.2 48.9-95.4 75.8-152.5 75.8-12.2 0-22 9.9-22 22 0 12.2 9.9 22 22 22 35.7 0 70.4-8.4 103.1-24.8 31.2-15.7 59.2-38.2 83.2-66.7 48.8-57.9 75.6-134.4 75.6-215.4v-33c-0.1-12-9.9-21.9-22.1-21.9z"  horiz-adv-x="1024" />

    
    <glyph glyph-name="setup" unicode="&#58925;" d="M528.2 262.4c-69.9 0-126.7 56.9-126.7 126.7 0 69.9 56.9 126.7 126.7 126.7S655 459.1 655 389.2c0-69.9-56.9-126.8-126.8-126.8z m0 187.6c-33.6 0-60.9-27.3-60.9-60.9s27.3-60.9 60.9-60.9c33.6 0 60.9 27.3 60.9 60.9S561.8 450 528.2 450zM385.5 15.9c-4.3 0-8.7 0.8-12.8 2.6-31 13-60.5 30.1-87.8 50.9-9.2 7-14.1 18.3-12.8 29.8l15.8 145.4c0.4 3.8-1.5 7.2-5 8.6-0.1 0-0.2 0.1-0.2 0.1l-133.6 58.9c-10.5 4.6-17.9 14.5-19.4 25.9-2.1 16.5-3.2 33.6-3.2 51 0 17.2 1.1 33.9 3.2 50.9 1.5 11.5 8.8 21.3 19.4 26l133.4 58.8c3.8 1.7 5.8 5.2 5.4 9.1l-15.8 145.4c-1.2 11.5 3.6 22.8 12.8 29.8 27.3 20.7 56.8 37.8 87.8 50.9 10.7 4.5 22.9 3 32.2-3.8L523 669.5c3.2-2.4 7.2-2.4 10.4 0L651.5 756c9.3 6.8 21.6 8.3 32.2 3.8 31-13 60.5-30.1 87.8-50.9 9.2-7 14.1-18.3 12.8-29.8l-15.8-145.4c-0.4-3.9 1.6-7.4 5.4-9.1l133.4-58.8c10.6-4.7 17.9-14.5 19.4-26 2.2-17 3.2-33.6 3.2-50.9 0-17.4-1.1-34.5-3.2-51-1.5-11.4-8.8-21.2-19.4-25.9l-133.6-58.9c-0.1 0-0.2-0.1-0.2-0.1-3.4-1.5-5.4-4.9-5-8.6L784.3 99c1.2-11.5-3.6-22.8-12.8-29.8-27.3-20.7-56.8-37.8-87.8-50.9-10.7-4.5-22.9-3-32.2 3.8l-117.8 86.3c-3.3 2.3-7.6 2.3-10.9 0L405 22.1c-5.8-4-12.6-6.2-19.5-6.2z m-45.8 95.2c13.4-9.1 27.4-17.3 41.8-24.3L484.1 162c0.1 0.1 0.2 0.2 0.4 0.3 26.2 18.6 61.3 18.6 87.5 0 0.1-0.1 0.3-0.2 0.4-0.3L675 86.9c14.4 7 28.4 15.2 41.8 24.3l-13.7 126.3c-3.6 32.6 14.2 63.2 44.2 76.2l115.9 51.1c0.6 8 0.9 16.1 0.9 24.3s-0.3 16.3-0.9 24.3l-116 51.1c-0.1 0-0.2 0.1-0.3 0.1-29.8 13.4-47.4 44.1-43.9 76.4l13.7 126.3c-13.4 9.1-27.4 17.3-41.8 24.3l-102.6-75.1c-13.2-9.7-28.7-14.5-44.1-14.5-15.5 0-30.9 4.8-44.2 14.5l-102.6 75.1c-14.4-7-28.4-15.2-41.8-24.3L353.3 541c3.5-32.2-14.1-62.9-43.9-76.3-0.1 0-0.2-0.1-0.3-0.1l-116-51.1c-0.6-8-0.9-16.1-0.9-24.3s0.3-16.3 0.9-24.3L309 313.8c30-13 47.8-43.6 44.2-76.2l-13.5-126.5zM894 342.3z"  horiz-adv-x="1024" />

    
    <glyph glyph-name="sos" unicode="&#58927;" d="M513.8 459.3c-34.4 0-51.6-27.4-51.6-82.1 0-53.5 17.2-80.2 51.6-80.2 35.6 0 53.5 26.7 53.5 80.2 1.3 54.7-16.6 82.1-53.5 82.1z m0 0M510.3 818.1C270.8 818.1 76.7 624 76.7 384.5 76.7 145.1 270.8-49 510.3-49c239.4 0 433.5 194.1 433.5 433.5 0 239.5-194.1 433.6-433.5 433.6z m-258.5-567c-70 1.3-106.3 26.1-108.9 74.5h68.8c2.5-17.8 15.9-27.4 40.1-28.6 22.9 0 34.4 8.9 34.4 26.7-1.3 14-17.9 24.2-49.7 30.6-62.4 11.5-92.3 38.2-89.8 80.2 2.5 43.3 37.5 67.5 105.1 72.6 62.4 0 95.5-24.2 99.3-72.6h-66.8c-1.3 15.3-12.1 23.6-32.5 24.8-19.1 0-28.7-7.6-28.7-22.9 0-10.2 15.9-19.1 47.8-26.7 61.1-16.6 91.7-43.9 91.7-82.1-3.9-45.9-40.8-71.4-110.8-76.5z m262 0c-81.5 2.6-124.2 44.6-128 126.1 3.8 82.8 46.5 126.1 128 129.9 81.5-3.8 124.2-47.1 128-129.9-3.8-81.5-46.5-123.5-128-126.1z m271.2 0c-70 1.3-106.3 26.1-108.9 74.5h68.8c2.5-17.8 15.9-27.4 40.1-28.6 22.9 0 34.4 8.9 34.4 26.7-1.3 14-17.9 24.2-49.7 30.6-62.4 11.5-92.3 38.2-89.8 80.2 2.5 43.3 37.5 67.5 105 72.6 62.4 0 95.5-24.2 99.3-72.6h-66.8c-1.3 15.3-12.1 23.6-32.5 24.8-19.1 0-28.6-7.6-28.6-22.9 0-10.2 15.9-19.1 47.7-26.7 61.1-16.6 91.7-43.9 91.7-82.1-3.7-45.9-40.6-71.4-110.7-76.5z m0 0"  horiz-adv-x="1024" />

    
    <glyph glyph-name="temperature" unicode="&#58938;" d="M528 610c-18.3 0-33.2-14.8-33.2-33.2v-283.6c-57.1-12.5-90.8-59.8-90.8-116.5 0-66.2 49.2-119.8 120.7-119.8 71.6 0 123.6 53.6 123.6 119.8 0 54.5-33.3 100.4-87 115V576.8c-0.1 18.3-15 33.2-33.3 33.2z m146.1 89.1c0 76.4-66.9 138.2-149.5 138.2-82.5 0-149.5-61.8-149.5-138.2v-330.5c-64.3-43-106.3-113-106.3-192C268.8 46 383.3-60 524.5-60s255.7 105.9 255.7 236.6c0 79.1-41.9 149-106.3 192V699.1zM328.7 176.6c0 70.2 43.2 131.1 106.3 161.2V699.1c0 45.8 40.2 82.9 89.7 82.9s89.7-37.2 89.7-82.9v-361.3c63.1-30.1 106.3-91 106.3-161.2 0-100.2-87.7-181.3-196-181.3-108.2 0-196 81.1-196 181.3z m0 0M726.6 683.9h-91.5c-7.2 0-13.1 5.9-13.1 13.1s5.9 13.1 13.1 13.1h91.5c7.2 0 13.1-5.9 13.1-13.1s-5.9-13.1-13.1-13.1zM726.6 625.4h-91.5c-7.2 0-13.1 5.9-13.1 13.1s5.9 13.1 13.1 13.1h91.5c7.2 0 13.1-5.9 13.1-13.1s-5.9-13.1-13.1-13.1zM726.6 559.4h-91.5c-7.2 0-13.1 5.9-13.1 13.1s5.9 13.1 13.1 13.1h91.5c7.2 0 13.1-5.9 13.1-13.1s-5.9-13.1-13.1-13.1z"  horiz-adv-x="1024" />

    
    <glyph glyph-name="sports" unicode="&#58939;" d="M735.1 723c56.4 0 102.1-47.8 102.1-106.7 0-58.9-45.7-106.7-102.1-106.7-56.4 0-102.1 47.8-102.1 106.7 0 58.9 45.7 106.7 102.1 106.7zM83 419c48 1.5 95.9 3.1 143.9 4.6 7-7.7 13.9-15.5 20.9-23.2L438 246.8c5.4-4.3-0.1-23.7-5.6-27.3-22.4-14.9-44.9-29.9-67.3-44.9-10.1-6.7-33.4-1.2-42.2 6.1-77.2 64.5-154.4 128.9-231.6 193.4-8.4 7.1-7.1 33.7-8.3 44.9z m215.7 234.6c-25.2-0.3-13.3-22.6-0.9-33 60.7-51 121.4-101.9 182.1-152.9-31.5-23.1-63.1-46.3-94.6-69.4-16.4-12-2.4-45.9 9.9-56 121.1-99 242.1-198 363.2-297h143.9c-4.2 17.7-2.2 40.7-16.7 52.4C782.7 180.9 680 264 577.3 347.1c33.7 27.1 67.4 54.2 101.1 81.4 10.9 8.8 6.3 32.1-3.8 40.7-73.4 62.2-146.9 124.4-220.3 186.6-51.9-0.7-103.8-1.5-155.6-2.2z m0 0"  horiz-adv-x="1024" />

    
    <glyph glyph-name="sleep1" unicode="&#58940;" d="M592.3 631.9c-2 0-3.9 0.8-5.3 2.1-1.4 1.4-2.2 3.3-2.1 5.3 0 4.1 3.3 7.4 7.4 7.4h89.1c3.3 0 6.1-2.1 7.1-5.3 1-3.2-0.2-6.6-3-8.4l-68.7-45.7h64.5c4.1 0 7.4-3.3 7.4-7.4 0-4.1-3.3-7.4-7.4-7.4h-89.1c-3.3 0-6.1 2.1-7.1 5.3-1 3.1 0.2 6.5 3 8.4l68.7 45.7h-64.5z m163.1-74.2c-2 0-3.9 0.8-5.2 2.2-1.4 1.4-2.2 3.3-2.2 5.2 0 4.1 3.3 7.4 7.4 7.4h111.2c2.5 2.1 6.1 2.2 8.9 0.4 2.7-1.8 3.9-5.2 2.9-8.4-1-3.1-3.9-5.3-7.2-5.2l-94.8-75.9h90.1c4.1 0 7.4-3.3 7.4-7.4 0-4.1-3.3-7.4-7.4-7.4H755.4c-3.1 0-5.9 2-7 5-1 3-0.1 6.3 2.3 8.2l94.8 75.9h-90.1zM599.6 350c-7.9 0.4-14.1 6.9-14.1 14.8s6.2 14.4 14.1 14.8H748c6.3 0 11.9-4 14.1-9.9 2.1-5.9 0.2-12.6-4.8-16.5L642 260.8h106c8.2 0 14.8-6.6 14.8-14.8 0-8.2-6.6-14.8-14.8-14.8H599.6c-6.3 0-11.9 4-14.1 9.9-2.1 5.9-0.2 12.6 4.8 16.5L705.7 350H599.6zM796 134.3c28.3 0 56 2.9 82.8 8.1C801 38.3 676.7-29 536.9-29 301.1-29 110 162.2 110 397.9c0 207.5 148 380.3 344 418.8-55.2-73.7-85-163.4-84.9-255.5 0-235.8 191.1-426.9 426.9-426.9z m0 0"  horiz-adv-x="1024" />

    
    <glyph glyph-name="man" unicode="&#58941;" d="M509.7 245.2c-4 0-8.1 0.1-12.1 0.3-73.4 3.2-141.2 34.7-190.8 88.8-49.7 54.1-75.3 124.4-72.1 197.7s34.7 141.2 88.8 190.8c54.1 49.7 124.4 75.3 197.7 72.1 73.4-3.2 141.2-34.7 190.8-88.8 49.7-54.1 75.3-124.4 72.1-197.7-3.2-73.4-34.7-141.2-88.8-190.8-51.1-47-116.6-72.4-185.6-72.4z m-0.3 487c-51.3 0-102.6-18.4-143.3-55.7-41.7-38.3-66.1-90.6-68.5-147.2-2.4-56.6 17.3-110.8 55.6-152.5 41.8-45.5 99-68.6 156.4-68.6 51.3 0 102.6 18.4 143.3 55.7 86.2 79.1 92 213.5 12.9 299.7-41.8 45.5-99.1 68.6-156.4 68.6zM501.4-42.3c-17.4 0-31.4 14.1-31.4 31.4V273.7c0 17.4 14.1 31.4 31.4 31.4s31.4-14.1 31.4-31.4v-284.5c0.1-17.4-14-31.5-31.4-31.5zM637.7 70.2H353.2c-17.4 0-31.4 14.1-31.4 31.4s14.1 31.4 31.4 31.4h284.5c17.4 0 31.4-14.1 31.4-31.4s-14-31.4-31.4-31.4z"  horiz-adv-x="1024" />

    
    <glyph glyph-name="woman" unicode="&#58942;" d="M458.5-28.8c-72.8 0-142.7 25.3-199.2 72.7-63.6 53.3-102.5 128.2-109.8 210.9S167.7 418 221 481.5c53.3 63.6 128.2 102.5 210.9 109.8 82.7 7.2 163.2-18.2 226.7-71.5 63.6-53.3 102.5-128.2 109.8-210.9s-18.2-163.2-71.5-226.7S568.7-20.4 486-27.6c-9.2-0.8-18.4-1.2-27.5-1.2zM435 555.9l3.1-35.4c-63.8-5.6-121.5-35.6-162.7-84.7-41.1-49-60.7-111.1-55.2-174.9S256 139.5 305 98.3c49-41.1 111.1-60.7 174.9-55.2 63.8 5.6 121.5 35.6 162.7 84.7 41.1 49 60.7 111.1 55.2 174.9S662 424.2 613 465.4c-49 41.1-111.1 60.7-174.9 55.2l-3.1 35.3zM635.8 461.6c-7.6 0-15.2 2.4-21.6 7.4-15.6 12-18.5 34.3-6.5 49.8l195.8 254.9c12 15.6 34.3 18.5 49.8 6.5 15.6-12 18.5-34.3 6.5-49.8L664 475.5c-7-9.1-17.5-13.9-28.2-13.9zM887 513.6c-15.9 0-30.4 10.7-34.4 26.8l-52.3 207.4c-4.8 19 6.7 38.3 25.7 43.1 19 4.8 38.3-6.7 43.1-25.7l52.3-207.4c4.8-19-6.7-38.3-25.7-43.1-2.9-0.7-5.8-1.1-8.7-1.1zM620.3 693.4c-17.3 0-32.5 12.7-35.1 30.3-2.9 19.4 10.5 37.5 29.9 40.3l211.6 31.3c19.4 2.9 37.5-10.5 40.3-29.9 2.9-19.4-10.5-37.5-29.9-40.3l-211.6-31.3c-1.7-0.2-3.5-0.4-5.2-0.4z"  horiz-adv-x="1024" />

    
    <glyph glyph-name="user_name" unicode="&#58943;" d="M517.4 732.3c48.8 0 94.7-19 129.2-53.5s53.5-80.4 53.5-129.2-19-94.7-53.5-129.2S566.2 367 517.4 367s-94.7 19-129.2 53.5-53.5 80.4-53.5 129.2 19 94.7 53.5 129.2 80.4 53.4 129.2 53.4m0 64.2C381 796.5 270.5 686 270.5 549.6S381 302.7 517.4 302.7s246.9 110.5 246.9 246.9S653.8 796.5 517.4 796.5zM746.3 268C829 209.4 883 113 883 4M883-28.1c-17.7 0-32.1 14.4-32.1 32.1 0 47.4-11.6 94.4-33.6 135.9-21.3 40.3-52.2 75.5-89.5 101.9-14.5 10.3-17.9 30.3-7.6 44.8 10.3 14.5 30.3 17.9 44.8 7.6 45.4-32.2 83.2-75.1 109.2-124.3 26.9-50.8 41-108.2 41-165.9-0.1-17.8-14.5-32.1-32.2-32.1zM126.2-28.1c-17.7 0-32.1 14.4-32.1 32.1 0 48 9.4 94.5 27.9 138.3 17.9 42.3 43.5 80.3 76.2 113 32.6 32.6 70.6 58.2 113 76.2 43.8 18.5 90.4 27.9 138.3 27.9h110.3c17.7 0 32.1-14.4 32.1-32.1s-14.4-32.1-32.1-32.1H449.4c-77.8 0-150.9-30.3-205.9-85.3S158.3 81.8 158.3 4c0-17.8-14.4-32.1-32.1-32.1z"  horiz-adv-x="1024" />

    
    <glyph glyph-name="open_eyes" unicode="&#58952;" d="M512.7 82.8h-0.6c-79.1 0.1-160.8 26.3-242.8 77.8-38.7 24.3-98.3 67.7-162.9 136.8-20.7 22.1-32.5 54.6-32.5 89 0.1 34.4 12 66.8 32.8 88.9 35.8 38 93.2 92.5 163.4 136.3 81.9 51.1 163.5 77 242.5 77h0.6c79.1-0.1 160.8-26.3 242.8-77.8 38.7-24.3 98.3-67.7 162.9-136.8 20.7-22.1 32.5-54.6 32.5-89s-12-66.8-32.8-88.9c-35.8-38-93.2-92.5-163.4-136.3-82-51.1-163.6-77-242.5-77z m-0.2 529.2C362.9 612 229 493.5 162.4 422.8c-7.3-7.8-11.9-21.8-11.9-36.5s4.5-28.7 11.8-36.5c66.4-71 200.2-190.1 349.9-190.4h0.5c149.5 0 283.5 118.5 350.1 189.2 7.3 7.8 11.9 21.8 12 36.5 0 14.7-4.5 28.7-11.8 36.5-66.5 71-200.3 190.1-350 190.4h-0.5zM512.6 250h-0.2c-36.2 0.1-70.3 14.2-95.9 39.9-25.6 25.7-39.6 59.8-39.6 96 0.1 74.7 61 135.5 135.7 135.5h0.2c36.2-0.1 70.3-14.2 95.9-39.9s39.6-59.8 39.6-96l-32.6 0.1 32.6-0.1c-0.1-74.8-61-135.5-135.7-135.5z m0 206.2c-38.9 0-70.5-31.6-70.6-70.4 0-18.8 7.3-36.6 20.6-49.9 13.3-13.3 31-20.7 49.9-20.8h0.1c18.8 0 36.5 7.3 49.8 20.6 13.3 13.3 20.7 31 20.8 49.9 0 18.8-7.3 36.6-20.6 49.9-13.3 13.3-31 20.7-49.9 20.8 0-0.1-0.1-0.1-0.1-0.1z"  horiz-adv-x="1024" />

    
    <glyph glyph-name="password" unicode="&#58953;" d="M327.5 522.8c-17.5 0-31.8 14.2-31.8 31.8 0 60.7 23.6 117.8 66.6 160.7s100 66.6 160.7 66.6c102.4 0 192.6-68.9 219.3-167.6 4.6-16.9-5.4-34.4-22.3-39-16.9-4.6-34.4 5.4-39 22.3-19.3 71.1-84.2 120.7-158 120.7-90.3 0-163.7-73.4-163.7-163.7-0.1-17.6-14.3-31.8-31.8-31.8zM787-28.5H258.9c-83.7 0-151.8 68.1-151.8 151.8v274c0 83.7 68.1 151.8 151.8 151.8H787c83.7 0 151.8-68.1 151.8-151.8v-274c0-83.7-68.1-151.8-151.8-151.8zM258.9 485.6c-48.7 0-88.3-39.6-88.3-88.3v-274c0-48.7 39.6-88.3 88.3-88.3H787c48.7 0 88.3 39.6 88.3 88.3v274c0 48.7-39.6 88.3-88.3 88.3H258.9zM522.9 112c-81.8 0-148.3 66.5-148.3 148.3s66.5 148.3 148.3 148.3 148.3-66.5 148.3-148.3S604.7 112 522.9 112z m0 233c-46.7 0-84.7-38-84.7-84.7s38-84.7 84.7-84.7 84.7 38 84.7 84.7-38 84.7-84.7 84.7z"  horiz-adv-x="1024" />

    
    <glyph glyph-name="close_eyes" unicode="&#58954;" d="M511.5 79.1c-80.1 0-162.7 26.4-245.8 78.3-39.1 24.5-99.6 68.4-165 138.1-21 22.4-33 55.1-33 90s12 67.6 33 90c36.1 38.5 94.1 93.7 165 138.1 83 52 165.7 78.3 245.8 78.3s162.7-26.4 245.8-78.3c39.1-24.5 99.6-68.4 165-138.1 21-22.4 33-55.1 33-90s-12-67.6-33-90c-36.1-38.5-94.1-93.7-165-138.1-83.1-51.9-165.8-78.3-245.8-78.3z m0 535.4c-151.5 0-287-120.3-354.3-192-7.4-7.9-12-22.1-12-36.9 0-14.9 4.6-29 12-36.9 67.3-71.7 202.8-192 354.3-192s287 120.3 354.3 192c7.4 7.9 12 22.1 12 36.9s-4.6 29-12 36.9c-67.3 71.7-202.9 192-354.3 192zM511.5 248.3c-75.7 0-137.3 61.6-137.3 137.3s61.6 137.3 137.3 137.3 137.3-61.6 137.3-137.3-61.6-137.3-137.3-137.3z m0 208.6c-39.4 0-71.4-32-71.4-71.4 0-39.4 32-71.4 71.4-71.4 39.4 0 71.4 32 71.4 71.4 0 39.4-32.1 71.4-71.4 71.4zM840.9 715L182 56.1M182 17.4c-9.9 0-19.8 3.8-27.4 11.3-15.1 15.1-15.1 39.7 0 54.8l658.9 658.9c15.1 15.1 39.7 15.1 54.8 0 15.1-15.1 15.1-39.7 0-54.8L209.4 28.7c-7.5-7.6-17.5-11.3-27.4-11.3z"  horiz-adv-x="1024" />

    
    <glyph glyph-name="presentation" unicode="&#58955;" d="M794.6 456.6H270.8c-11.8 0-21.4 9.6-21.4 21.4s9.6 21.4 21.4 21.4h523.8c11.8 0 21.4-9.6 21.4-21.4s-9.6-21.4-21.4-21.4zM671.5 297.6H393.8c-11.8 0-21.4 9.6-21.4 21.4s9.6 21.4 21.4 21.4h277.7c11.8 0 21.4-9.6 21.4-21.4s-9.6-21.4-21.4-21.4zM794.6 138.6H270.8c-11.8 0-21.4 9.6-21.4 21.4s9.6 21.4 21.4 21.4h523.8c11.8 0 21.4-9.6 21.4-21.4s-9.6-21.4-21.4-21.4zM630 563.4H435.5c-53.7 0-97.4 43.7-97.4 97.4v3.5c0 53.7 43.7 97.4 97.4 97.4h194.4c53.7 0 97.4-43.7 97.4-97.4v-3.5c0.1-53.7-43.6-97.4-97.3-97.4zM435.5 682.6c-10.1 0-18.2-8.2-18.2-18.2v-3.5c0-10.1 8.2-18.2 18.2-18.2h194.4c10.1 0 18.2 8.2 18.2 18.2v3.5c0 10.1-8.2 18.2-18.2 18.2H435.5zM837.3-26.6H227.9c-49.8 0-90.3 41.7-90.3 93V591c0 52.5 41.4 95.2 92.4 95.2h154.1c16.4 0 29.7-13.3 29.7-29.7s-13.3-29.7-29.7-29.7H230c-18.2 0-33-16.1-33-35.8v-524.6c0-18.5 13.9-33.6 30.9-33.6h609.4c17.1 0 30.9 15.1 30.9 33.6V593.2c0 18.5-13.9 33.6-30.9 33.6H699c-16.4 0-29.7 13.3-29.7 29.7s13.3 29.7 29.7 29.7h138.4c49.8 0 90.3-41.7 90.3-93v-526.8c0-51.3-40.6-93-90.4-93z"  horiz-adv-x="1024" />

    
    <glyph glyph-name="bloodpressure" unicode="&#58956;" d="M867.6 633.4c-98.8 97.8-258 97.3-356.2-1.1l-0.7 0.7-0.1-0.1c-0.4 0.4-0.8 0.9-1.2 1.3-99 98.1-258.8 97.3-356.8-1.7-98.1-99-97.3-258.8 1.7-356.8 0.4-0.4 0.9-0.8 1.3-1.2l-0.1-0.1 321.9-318.9c20.2-20 52.8-19.9 72.8 0.3l305.7 308.6c4.5 3.9 9 7.8 13.2 12 98.3 99.2 97.5 259-1.5 357zM658.7 274H519.9c-17.8 0-32.1 14.4-32.1 32.1V455.3c0 17.8 14.4 32.1 32.1 32.1 17.8 0 32.1-14.4 32.1-32.1v-117h106.6c17.8 0 32.1-14.4 32.1-32.1s-14.3-32.2-32-32.2z"  horiz-adv-x="1024" />

    
    <glyph glyph-name="back1" unicode="&#58957;" d="M509.9 826.5C266.3 826.5 68.8 629 68.8 385.4s197.5-441.1 441.1-441.1S951 141.8 951 385.4 753.5 826.5 509.9 826.5z m251.9-222.3H577.9L739.6 397c10.5-13.4 8.1-32.8-5.3-43.2-5.6-4.3-12.2-6.5-18.8-6.5-9.2-0.1-18.3 4-24.5 11.9L545.7 545.3l-1.5-409.5c-0.1-17-13.8-30.7-30.8-30.7h-0.1c-17 0.1-30.7 13.9-30.7 30.9l1.5 409.8-153-184.2c-6.1-7.3-14.7-11.1-23.5-11.1-7 0-14 2.3-19.8 7.1-13.1 10.8-14.9 30.3-4.1 43.4l168.8 203.2H258.1c-17 0-30.8 13.8-30.8 30.8s13.8 30.8 30.8 30.8h503.7c17 0 30.8-13.8 30.8-30.8s-13.8-30.8-30.8-30.8z"  horiz-adv-x="1024" />

    
    <glyph glyph-name="userstatus" unicode="&#58958;" d="M679.3 786c-53.7 22.7-110.7 34.2-169.5 34.2S394 808.7 340.3 786c-51.9-21.9-98.4-53.3-138.4-93.3s-71.4-86.6-93.3-138.4c-22.7-53.7-34.2-110.7-34.2-169.5S85.9 269 108.6 215.3c21.9-51.9 53.3-98.4 93.3-138.4s86.6-71.4 138.4-93.3c53.7-22.7 110.7-34.2 169.5-34.2s115.8 11.5 169.5 34.2c51.9 21.9 98.4 53.3 138.4 93.3s71.4 86.6 93.3 138.4c22.7 53.7 34.2 110.7 34.2 169.5S933.8 500.6 911 554.3c-21.9 51.9-53.3 98.4-93.3 138.4s-86.6 71.4-138.4 93.3z m-184.5-44.7c93.1 0 171.9-75.2 171.9-168.3 0-93.1-78.8-168.3-171.9-168.3S322.9 479.9 322.9 573s78.8 168.3 171.9 168.3z m79-673.3H444.9c-121.8 0-214.9 0-214.9 60.9v10.7c0 118.2 96.7 211.3 214.9 211.3h125.3c118.2 0 214.9-96.7 214.9-211.3v-7.2c3.6-64.4-96.7-64.4-211.3-64.4z"  horiz-adv-x="1024" />

    
    <glyph glyph-name="phone" unicode="&#58959;" d="M500.5 820C262 820 68.7 626.7 68.7 388.2S262-43.6 500.5-43.6s431.8 193.3 431.8 431.8S739 820 500.5 820z m0.9-712.4c-241.1 0-291-0.2-291 110.4 0 120.7 130.3 361.6 291 361.6s291-240.9 291-361.6c0-110.6-49.9-110.4-291-110.4z m254.3 328c-42.3 74.9-135.6 170.6-255 170.6s-207-88.4-257.7-171.3c-8.3-17.8-54-37-78.2 0.7-13.7 18-54 232.7 335.9 233.2 385.6 0 348.9-208.3 337.1-233.2-18.3-33.2-60.2-37.2-82.1 0zM502.2 527.8c-68.3 0-123.7-56.5-123.7-126.3s55.4-126.3 123.7-126.3 123.6 56.5 123.6 126.3-55.3 126.3-123.6 126.3z"  horiz-adv-x="1024" />

    
    <glyph glyph-name="electronicfencerem" unicode="&#58960;" d="M701.6 404.8l54.1 0.2c-6.1 56.3-31 108.4-71.6 149.1-43.4 43.3-99.9 68.7-160.5 72.5l0.2-53.8c91.5-7.5 165.3-78.1 177.8-168zM507.6 181.7c-108 0-195.9 87.9-195.9 195.9 0 2.6 0.1 5.1 0.2 7.6l-53.7-0.2c-0.1-2.5-0.1-4.9-0.1-7.4 0-66.7 26-129.3 73.1-176.5 47-47.1 109.7-73.1 176.4-73.1h0.3l-0.3 53.7zM633.5 395c0 0.7 0.1 1.4 0.2 2 0.7 4.3 4.4 7.5 8.8 7.5l22.7 0.1c-12 70.1-69.7 124.7-141.2 132.1l0.1-32.8c0.1-4.9-3.9-9-8.9-9-4.9 0-9 4-9 8.9l-0.2 33.7c-78.5-0.7-143.7-58.2-156.2-133.4H389c5 0 9.1-4.1 9.1-9.1 0-1.6-0.4-3.1-1.2-4.4-1.5-2.9-4.5-5-7.9-5l-41.1-0.2c-0.1-2.6-0.2-5.2-0.2-7.8 0-88.1 71.6-159.8 159.7-159.9l-0.1 32.5c0 5 4 9 8.9 9s9-4 9-8.9l0.1-31.6c79.9 8.9 142.2 76.7 142.2 158.9 0 2.8-0.1 5.6-0.2 8.3h-24.7c-5 0-9.1 4.1-9.1 9.1zM506 573.5l-0.2 53.6c-66-0.5-127.9-26.4-174.6-73.1-40.8-40.8-65.7-93.3-71.7-149.9h54.1c12.8 95 94.1 168.6 192.4 169.4zM703.5 377.6c0-102-78.4-186-178-195.1l0.2-53.9c59.8 4.3 115.5 29.6 158.3 72.4 47.1 47.1 73.1 109.8 73.1 176.5 0 2.8-0.1 5.5-0.2 8.3h-53.7c0.2-2.7 0.3-5.4 0.3-8.2zM515.8 808.9C277.3 808.9 84 615.6 84 377.1s193.3-431.8 431.8-431.8 431.8 193.3 431.8 431.8S754.3 808.9 515.8 808.9z m345.9-423H811c0.1-2.8 0.1-5.5 0.1-8.3 0-81.1-31.6-157.3-88.9-214.6-52.9-52.9-122.1-83.9-196.2-88.3l0.2-43.5c0.1-4.9-3.9-9-8.9-9-4.9 0-9 4-9 8.9l-0.2 43h-0.5c-81.1 0-157.3 31.6-214.6 88.9-57.3 57.3-88.9 133.5-88.9 214.6 0 2.4 0 4.8 0.1 7.2l-34.3-0.2c-4.9 0-9 4-9 8.9v0.2c-0.1 0.4-0.1 0.9-0.1 1.3 0 5 4.1 9.1 9.1 9.1h35.4c6.1 71.1 36.7 137.1 87.7 188.1 56.8 56.8 132.2 88.3 212.5 88.9l-0.2 41.8c0 5 4 9 8.9 9s9-4 9-8.9l0.2-42.3c75.2-3.8 145.2-34.9 198.8-88.5 50.7-50.7 81.3-116.3 87.6-186.9l51.8 0.2c4.8 0 8.8-3.8 9-8.5 0.1-0.6 0.2-1.3 0.2-2 0-5-4-9.1-9.1-9.1z"  horiz-adv-x="1024" />

    
    <glyph glyph-name="lifehelp" unicode="&#58962;" d="M518.9 798C280.4 798 87.1 604.7 87.1 366.2s193.3-431.8 431.8-431.8 431.8 193.3 431.8 431.8S757.4 798 518.9 798z m20.3-803.7c-6.8-2.9-13.9-4.4-21-4.4s-14.2 1.5-20.8 4.4l-83 44.9H625l-85.8-44.9z m95 90.9H406.4v-0.1C393.3 85.4 383 96 383 109s10.3 23.6 23.3 23.9v0.1h227.9c13-0.4 23.2-10.9 23.2-23.9s-10.2-23.5-23.2-23.9z m157.4 343.2l-0.1-0.2c-1.3-2.1-1.7-4.6-1.4-7v-0.1l-4.4-26.9h-0.4c-0.3 0-0.5-0.1-0.5-0.2-0.5-0.5-0.4-1.8-0.4-2.9v-0.9c-2.8-9.8-5.7-18.7-8.5-26.3v-1.6l-1.5-1.5c-3.2-9.4-7.1-18.7-11.3-27.6 0.1-0.5-0.1-1-0.5-1.4-0.3-0.3-0.7-0.5-1.2-0.5-4.5-9.5-9.8-18.8-15.6-27.6-6.4-9.8-12.4-18.5-18.5-26.4l-1.5-1.5c-6.1-7.2-12.9-14.1-20-20.5l-0.1-0.1c-0.7-0.4-1.4-0.9-2.1-1.4-2-1.4-2.9-2.7-4.1-4.3-0.9-1.2-2-2.7-3.7-4.4l-0.2-0.2h-0.2c-1.7 0.2-3.3-0.9-3.7-2.6v-0.2L678 231l-2.9-2.2-2.2-1.5c-7.8-6.1-14.2-14.2-18.4-23.2-2.7-7-6.6-13.4-11.5-19.2-3.8-4-10.9-6-21.5-6H416.4c-10.7 0-17.8 2-21.7 6-5 5.8-9.1 12.2-12.2 19.2-4.4 8.8-10.3 16.5-17.5 23.1-1.2 0.1-2.3 0.7-3.1 1.7l-2.1 2.2-13.6 10.9-4.2 2.9-31.4 32.3c-13 16.9-24.5 35.1-34.1 54-0.4 0-0.9 0.2-1.2 0.5-0.4 0.4-0.5 0.9-0.5 1.4-4.2 8.9-8 18.1-11.2 27.4-0.4 0-0.8 0.2-1.1 0.5-0.4 0.4-0.6 1-0.5 1.5V364c-2.8 7.7-5.7 16.5-8.5 26.3-0.3 0.7-0.5 1.4-0.7 2.2l-0.7 2.1c-2 8.7-3.4 17.6-4.3 26.5 0 0.9-0.4 2.3-0.7 3.6-0.4 1.4-0.7 2.8-0.7 3.8-0.9 9.6-1.4 20.1-1.4 32.2 0 38.5 6.7 74.7 20 107.7 13.2 32.9 33.4 63.6 59.9 91.2 52.8 55 117.8 82.9 193.4 82.9 37.7 0 73.1-7 105.2-20.7 32.2-13.7 62.1-34.7 88.9-62.2 26.8-27.5 47.2-58.2 60.5-91.2 13.3-32.9 20.1-69.2 20.1-107.7 0-12-0.5-22.6-1.4-32.3zM668.6 461.4c7-4.1 15.7-4.1 22.6 0 7 4.1 11.2 11.7 11 19.8 0 51.1-15.8 90.8-48.3 121.3-32.1 30-69.3 45.3-110.8 45.3-6.1 0.1-11.9-2.3-16.1-6.6-4.2-4.3-6.5-10.3-6.2-16.3-0.3-6.1 2-12 6.2-16.3 4.2-4.4 10.1-6.8 16.1-6.7 27.7 0 53.9-11.6 78-34.6 23.9-22.1 37.2-53.5 36.5-86.1-0.2-8.1 4-15.7 11-19.8z"  horiz-adv-x="1024" />

    
    <glyph glyph-name="devicestatus" unicode="&#58963;" d="M592.8 480.8c-12.5 12.5-27.2 22.4-44.1 29.5-16.9 7.1-34.8 10.7-53.7 10.7-18.9 0-36.8-3.6-53.7-10.7-16.9-7.2-31.6-17-44.1-29.5s-22.4-27.2-29.5-44.1c-7.2-16.9-10.7-34.8-10.7-53.7 0-19.4 3.6-37.5 10.7-54.1 7.2-16.6 17-31.2 29.5-43.7s27.2-22.4 44.1-29.5c16.9-7.2 34.8-10.7 53.7-10.7s36.8 3.6 53.7 10.7c16.9 7.2 31.6 17 44.1 29.5s22.4 27.1 29.5 43.7c7.2 16.6 10.7 34.7 10.7 54.1 0 18.9-3.6 36.8-10.7 53.7-7.2 16.9-17 31.6-29.5 44.1z m24.1-61.8c-0.5-2.6-2-4.3-4.6-5.4l-118.1-49.9c-2.6-1-5.6-1.2-9.2-0.4-3.6 0.8-5.9 2.4-6.9 5-0.1 0.4-0.3 0.8-0.4 1.1-0.1 0.1-0.3 0.2-0.4 0.4l-61.4 79c-1 1.5-1.8 3.8-2.3 6.9-0.5 3.1 0.5 5.9 3.1 8.4 3.1 2 6 2.4 8.8 1.2 2.8-1.3 4.7-2.7 5.8-4.2l60.1-75.7 109.4 45.9c7.7 3.6 12.8 2 15.3-4.6 1-2.6 1.3-5.1 0.8-7.7zM683.7 786.1C630 808.8 573 820.3 514.2 820.3s-115.8-11.5-169.5-34.2c-51.9-21.9-98.4-53.3-138.4-93.3s-71.4-86.6-93.3-138.4c-22.7-53.7-34.2-110.7-34.2-169.5S90.3 269.1 113 215.4c21.9-51.9 53.3-98.4 93.3-138.4s86.6-71.4 138.4-93.3c53.7-22.7 110.7-34.2 169.5-34.2S630-39 683.7-16.3c51.9 21.9 98.4 53.3 138.4 93.3s71.4 86.6 93.3 138.4c22.7 53.7 34.2 110.7 34.2 169.5s-11.5 115.8-34.2 169.5c-21.9 51.9-53.3 98.4-93.3 138.4s-86.6 71.4-138.4 93.3z m-271.6-71c0 6.6 1.7 13.7 5 21.1s11.4 14.4 24.2 21.1c6.1 3.1 14.1 5.4 23.8 6.9s19.7 2.3 29.9 2.3 20.1-0.8 29.5-2.3c9.5-1.5 17-3.8 22.6-6.9 12.3-6.1 20.2-12.9 23.8-20.3 3.6-7.4 5.4-15.2 5.4-23.4v-109c-6.6 3.6-14.3 6.6-23 9.2-7.2 2.6-15.9 4.9-26.1 6.9-10.2 2-21.2 3.1-33 3.1s-22.6-1-32.6-3.1c-10-2-18.5-4.3-25.7-6.9-8.7-2.6-16.6-5.6-23.8-9.2V715.1z m163.5-661.4c0-8.1-1.8-15.5-5.4-22.2s-11.2-13.1-23-19.2c-5.6-3.1-13.1-5.4-22.6-6.9-9.4-1.5-19.4-2.3-29.9-2.3s-20.6 0.8-30.3 2.3-17.7 3.8-23.8 6.9c-12.8 6.7-20.7 13.3-23.8 20-3.1 6.6-4.6 13.3-4.6 19.9V165c7.2-4.1 15.1-7.5 23.8-10 7.1-2.5 15.6-4.7 25.3-6.5s20.4-2.7 32.2-2.7 22.8 0.9 33 2.7c10.2 1.8 18.9 3.9 26.1 6.5 8.7 2.6 16.4 5.9 23 10v-111.3z m151.1 326.1c0-5.1-1.9-9.8-5.8-14.2-3.8-4.3-8.6-6.5-14.2-6.5s-10.4 1.8-14.2 5.4c-2.1 2-3.6 4.1-4.6 6.5-1.3-22.2-6.3-43.4-14.9-63.3-10.2-23.5-24-44-41.4-61.4s-37.8-31.2-61.4-41.4c-23.5-10.2-48.6-15.3-75.2-15.3s-51.7 5.1-75.2 15.3-44 24-61.4 41.4-31.2 37.9-41.4 61.4-15.3 48.6-15.3 75.2 5.1 51.7 15.3 75.2c10.2 23.5 24 44 41.4 61.4s37.9 31.2 61.4 41.4 48.6 15.3 75.2 15.3 51.7-5.1 75.2-15.3 44-24 61.4-41.4 31.2-37.8 41.4-61.4c7.6-17.6 12.4-36 14.3-55.3 0.8 3.1 2.5 5.8 5.2 8.1 3.8 3.3 8.6 5 14.2 5s10.4-1.9 14.2-5.8c3.8-3.8 5.8-8.3 5.8-13.4v-16.9z"  horiz-adv-x="1024" />

    
    <glyph glyph-name="heartrate" unicode="&#58964;" d="M676.6 724.3c-61.3 0-120.4-22-167-61.5-46.5 39.5-105.7 61.5-167 61.5-143.5 0-260.4-118.6-260.4-264.3 0-69.3 19.8-137.4 58.8-202.4 30.9-51.5 74-101.3 128.2-148.1 60.1-51.9 135.1-100.6 211.1-137.3 1.1-0.5 1.9-0.9 2.4-1.2 8.3-4.2 17.6-6.5 26.9-6.5s18.5 2.3 26.9 6.5c0.5 0.2 1.3 0.6 2.4 1.2 76 36.6 151 85.4 211.1 137.3 54.2 46.7 97.3 96.6 128.2 148.1 39 65 58.8 133.2 58.8 202.5 0 145.6-116.9 264.2-260.4 264.2z m182.3-400.6h-0.4v-0.4c-26.1 0-61.1-0.7-61.1-0.7-6.4 0.4-12.4-1.3-18-5.2-5.5-3.9-9.4-7.7-11.7-11.4-1.8-3.7-5.1-10.8-9.6-21.4-4.7-10.5-8.8-21.4-12.4-32.4-1.8-5.5-4.8-9.2-9-10.9-4.1-1.9-8.4-2.7-12.8-2.4-4.3 0.2-8.5 1.4-12.4 3.7s-6.5 5.1-7.9 8.3c-1.3 3.2-3.7 8.8-6.8 16.9-3.2 8-6.4 16.2-9.6 24.5-4.2 9.6-8.3 19.9-12.4 31-12-38.2-22.8-73.3-32.5-105.5-4.1-13.8-8.3-27.3-12.4-40.7-16-51.6-20.6-89.8-50.3-91.1-36.5 0-42.9 59.4-44.9 79.4-1.8 18.4-3.8 38.9-5.8 61.4-2.1 22.5-4.2 45.5-6.5 69-5.1 54.7-11 115.9-17.9 183.4-12.9-37.7-24.4-71.5-34.5-101.3-4.1-12.9-8.4-25.5-12.8-38-4.3-12.4-8.3-23.7-11.8-33.8-3.4-10.1-6.3-18.6-8.6-25.5l-4.2-12.4c-2.3-5.9-5.4-11.4-9.4-16.5-3.9-5.1-10-7.3-18.3-6.9-8.3 0-14.5 2.8-18.6 8.7-4.2 5.8-7.3 12.3-9.7 19.6-1.4 3.7-3.9 10.8-7.6 21.4-3.7 10.6-7.6 21.4-11.8 32.4-5.1 12.9-10.3 27.1-15.9 42.7-3.3-4.2-6.7-8.3-10.4-12.4-3.2-3.7-6.7-7.7-10.3-12.1-3.7-4.3-7.3-8.6-11-12.7-7.3-8.7-14.3-14.8-20.7-17.9-6.4-3.2-14-4.3-22.8-3.4-4.6 0.4-10.7 0.6-18.3 0.3-7.6-0.3-15.3-0.3-23.1-0.3-8.8-0.5-53.3-0.8-63.9-0.8v53.8h72.9c10.1 0 18.3 0.9 24.5 2.8 6.2 1.8 12.3 5.3 18.3 10.3l11 11c4.6 4.6 9.4 9.8 14.5 15.9 5.1 5.9 10.3 12.1 15.5 18.3 5.3 6.2 10.3 12.1 14.9 17.6 9.2 11.5 17.4 15.9 24.9 13.4 7.3-2.5 12.9-7.9 16.6-16.2l30.4-83.5c15.7 43.7 29.5 83.2 41.4 118.6 5.1 15.2 10.1 30.1 15.2 44.5-2.9-8.3 23.3 86.2 49 86.2 37.3 0 39-40 44.8-67.3 3.8-17.7 4.7-37.8 7.3-59.7 2.6-21.8 5.2-44 7.9-66.5 6-52.8 12.9-111.9 20.7-177.2 10.1 33.1 19.3 63.3 27.6 90.3 3.2 11.5 6.6 22.9 10 34.1 3.4 11.3 6.7 21.6 9.7 31s5.4 17.4 7.3 23.8c1.8 6.4 3.3 10.6 4.2 12.4 2.3 7.3 5.1 12.9 8.3 16.6s7.6 6.2 13.1 7.6c10.6 2.8 18.5 1.3 23.9-4.5 5.3-5.8 7.3-11.6 7.9-17.5 1.1-9.3 1.9-17.3 3.2-28.3 1.1-9.6 6.3-21.1 9.9-31 0.7-2 10.8-25.2 9.6-26.2 0.5 0.4 1.2 1.4 2.1 2.7 1.4 2.3 3.7 7.2 6.8 14.5 3.8 7.8 9.8 12.9 18.4 15.5 11.9 3.5 37.7 2.4 39.7 2.4h66.6v-52z"  horiz-adv-x="1024" />

    
    <glyph glyph-name="open" unicode="&#58965;" d="M752.5 568.7H266c-109.1 0-197.5-88.4-197.5-197.5S156.9 173.7 266 173.7h486.5c109.1 0 197.5 88.4 197.5 197.5s-88.4 197.5-197.5 197.5z m-14.6-369.4c-94.9 0-171.9 77-171.9 171.9s77 171.9 171.9 171.9 171.9-77 171.9-171.9-77-171.9-171.9-171.9z"  horiz-adv-x="1024" />

    
    <glyph glyph-name="close" unicode="&#58966;" d="M752.5 568.7H266c-109.1 0-197.5-88.4-197.5-197.5S156.9 173.7 266 173.7h486.5c109.1 0 197.5 88.4 197.5 197.5s-88.4 197.5-197.5 197.5zM271.9 199.3c-94.9 0-171.9 77-171.9 171.9s77 171.9 171.9 171.9 171.9-77 171.9-171.9-77-171.9-171.9-171.9z"  horiz-adv-x="1024" />

    
    <glyph glyph-name="voice" unicode="&#58970;" d="M509 215.6c-83.8 0-149.7 70.6-151.7 157.6V634.4c0 87.1 67.8 157.6 151.7 157.6s151.7-70.6 151.7-157.6v-261.2c0-87.1-67.9-157.6-151.7-157.6z m242.2 264.9c8.2 0.2 16.1-3 21.9-8.6 5.8-5.8 9-13.6 8.9-21.8v-83.3c0-138.1-106.8-253.8-242.2-268.1v-65h102.6c16.8-0.3 30.3-13.8 30.8-30.5-0.5-16.7-14.1-30.2-30.8-30.5H375.6c-16.8 0.3-30.3 13.8-30.8 30.5 0.5 16.7 14.1 30.2 30.8 30.5h102.6v65C342.7 113 236 228.7 236 366.8v91.4c0.5 16.8 14.1 30.2 30.8 30.5 16.7-0.3 30.3-13.8 30.8-30.5v-91.4C297.5 251.1 392 157.7 509 157.7s211.5 93.4 211.5 209.2V450c0.5 16.8 14 30.2 30.7 30.5z m0 0"  horiz-adv-x="1024" />

    
    <glyph glyph-name="more" unicode="&#58971;" d="M510.8 96.4m-101.3 0a101.3 101.3 0 1 1 202.6 0 101.3 101.3 0 1 1-202.6 0ZM510.8 380.1m-101.3 0a101.3 101.3 0 1 1 202.6 0 101.3 101.3 0 1 1-202.6 0ZM510.8 696.3m-101.3 0a101.3 101.3 0 1 1 202.6 0 101.3 101.3 0 1 1-202.6 0Z"  horiz-adv-x="1024" />

    
    <glyph glyph-name="healthdata" unicode="&#58972;" d="M345.2 403.6c-20.7 0-37.4-16.7-37.4-37.4V26c0-7.4 6-13.5 13.5-13.5h47.9c7.4 0 13.5 6 13.5 13.5V366.2c-0.1 20.6-16.8 37.4-37.5 37.4zM526.6 537.8c-20.2 0-36.5-16.4-36.5-36.5V-21c0-7.3 5.9-13.2 13.2-13.2H550c7.3 0 13.2 5.9 13.2 13.2V501.3c-0.1 20.2-16.4 36.5-36.6 36.5zM700.2 384.1c-20.2 0-36.5-16.4-36.5-36.5v-332.4c0-7.3 5.9-13.2 13.2-13.2h46.8c7.3 0 13.2 5.9 13.2 13.2V347.6c-0.2 20.1-16.5 36.5-36.7 36.5zM511.1 759.8c50.9 0 100.2-10 146.6-29.6 44.8-19 85.1-46.1 119.7-80.7 34.6-34.6 61.8-74.9 80.7-119.7 19.6-46.4 29.6-95.7 29.6-146.6 0-50.9-10-100.2-29.6-146.6-19-44.8-46.1-85.1-80.7-119.7-34.6-34.6-74.9-61.8-119.7-80.7-46.4-19.6-95.7-29.6-146.6-29.6s-100.2 10-146.6 29.6c-44.8 19-85.1 46.1-119.7 80.7-34.6 34.6-61.8 74.9-80.7 119.7-19.6 46.4-29.6 95.7-29.6 146.6 0 50.9 10 100.2 29.6 146.6 19 44.8 46.1 85.1 80.7 119.7 34.6 34.6 74.9 61.8 119.7 80.7 46.4 19.7 95.8 29.6 146.6 29.6m0 61.2C269.3 821 73.3 625 73.3 383.2s196-437.9 437.9-437.9S949 141.3 949 383.2 753 821 511.1 821z"  horiz-adv-x="1024" />

    
    <glyph glyph-name="back2" unicode="&#58974;" d="M705.6-34.8c-6.2 0-12.5 1.9-18 5.8l-486 344.8c-8 5.7-12.8 14.7-13.1 24.5s4 19.1 11.6 25.2l485.7 390.4c13.4 10.8 33 8.6 43.8-4.8 10.8-13.4 8.6-33-4.8-43.8L271.2 342.7l452.4-321c14-10 17.3-29.4 7.4-43.5-6.1-8.5-15.7-13-25.4-13z"  horiz-adv-x="1024" />

    
    <glyph glyph-name="cancel" unicode="&#58975;" d="M509.2 763.2c50.9 0 100.2-9.9 146.6-29.6 44.8-19 85.1-46.1 119.7-80.7 34.6-34.6 61.8-74.9 80.7-119.7 19.6-46.4 29.6-95.7 29.6-146.6s-9.9-100.2-29.6-146.6c-19-44.8-46.1-85.1-80.7-119.7-34.6-34.6-74.9-61.8-119.7-80.7C609.4 20 560.1 10 509.2 10s-100.2 9.9-146.6 29.6c-44.8 19-85.1 46.1-119.7 80.7-34.6 34.6-61.8 74.9-80.7 119.7-19.6 46.4-29.6 95.7-29.6 146.6s9.9 100.2 29.6 146.6c19 44.8 46.1 85.1 80.7 119.7s74.9 61.8 119.7 80.7c46.4 19.7 95.7 29.6 146.6 29.6m0 61.2c-241.8 0-437.8-196-437.8-437.8s196-437.8 437.8-437.8S947 144.8 947 386.6 751 824.4 509.2 824.4zM312.2 583.6l394-394M706.2 159c-7.8 0-15.7 3-21.6 9l-394 393.9c-11.9 11.9-11.9 31.3 0 43.3 11.9 11.9 31.3 11.9 43.3 0l393.9-393.9c11.9-11.9 11.9-31.3 0-43.3-6-6-13.8-9-21.6-9zM312.2 189.6l394 394M312.2 159c-7.8 0-15.7 3-21.6 9-11.9 11.9-11.9 31.3 0 43.3l393.9 393.9c11.9 11.9 31.3 11.9 43.3 0 11.9-11.9 11.9-31.3 0-43.3L333.9 168c-6-6-13.8-9-21.7-9z"  horiz-adv-x="1024" />

    
    <glyph glyph-name="send" unicode="&#58976;" d="M510.9 762.3c51.3 0 101-10 147.8-29.8 45.2-19.1 85.8-46.5 120.7-81.4 34.9-34.9 62.3-75.5 81.4-120.7 19.8-46.8 29.8-96.5 29.8-147.8s-10-101-29.8-147.8c-19.1-45.2-46.5-85.8-81.4-120.7-34.9-34.9-75.5-62.3-120.7-81.4-46.8-19.8-96.5-29.8-147.8-29.8s-101 10-147.8 29.8c-45.2 19.1-85.8 46.5-120.7 81.4-34.9 34.9-62.3 75.5-81.4 120.7-19.8 46.8-29.8 96.5-29.8 147.8s10 101 29.8 147.8c19.1 45.2 46.5 85.8 81.4 120.7 34.9 34.9 75.5 62.3 120.7 81.4 46.8 19.8 96.5 29.8 147.8 29.8m0 61.7C267.1 824 69.4 626.4 69.4 382.6S267-58.8 510.8-58.8s441.4 197.6 441.4 441.4S754.7 824 510.9 824zM567.3 132.9c-11 0-21.2 5.9-26.8 15.5l-90.8 158.5-160.4 64.7c-11.3 4.6-18.9 15.4-19.3 27.6-0.4 12.2 6.5 23.5 17.5 28.8l420.1 201.2c11.2 5.4 24.6 3.5 33.9-4.9 9.3-8.3 12.6-21.4 8.5-33.2L596.4 153.5c-4-11.4-14.3-19.4-26.3-20.5-1-0.1-1.9-0.1-2.8-0.1z m-190 269.7l105.4-42.5c6.4-2.6 11.8-7.3 15.2-13.3l62.6-109.3 106.7 303.8-289.9-138.7z"  horiz-adv-x="1024" />

    
    </font>
</defs>
</svg>
